<svg xmlns="http://www.w3.org/2000/svg" width="371" height="371" viewBox="0 0 371 371" fill="none"><circle cx="185.31" cy="185.309" r="25" fill="#009BCB"></circle><path d="M194.31 299.994V370.309C240.219 368.129 283.523 350.033 321.81 310.953C351.91 278.736 367.336 240.107 370.61 193.309H300.81C297.168 223.164 287.57 246.894 269.31 265.178C251.431 284.512 227.957 295.234 194.31 299.994Z" fill="#141D24"></path><path d="M299.995 176.609H370.31C368.13 130.7 350.033 87.3956 310.954 49.1093C278.736 19.0091 240.107 3.58305 193.31 0.309296V70.1093C223.164 73.7506 246.894 83.3492 265.178 101.609C284.512 119.488 295.234 142.961 299.995 176.609Z" fill="url(#paint0_linear_3_57)"></path><path d="M70.6246 194.309L0.30957 194.309C2.48943 240.218 20.5861 283.523 59.6654 321.809C91.8834 351.909 130.512 367.336 177.31 370.609L177.31 300.809C147.455 297.168 123.725 287.569 105.441 269.309C86.1067 251.431 75.3851 227.957 70.6246 194.309Z" fill="url(#paint1_linear_3_57)"></path><path d="M176.609 70.6244L176.609 0.309326C130.7 2.48918 87.3958 20.5859 49.1094 59.6652C19.0093 91.8831 3.58318 130.512 0.309418 177.309L70.1094 177.309C73.7508 147.455 83.3493 123.724 101.609 105.441C119.488 86.1064 142.962 75.3848 176.609 70.6244Z" fill="url(#paint2_linear_3_57)"></path><path d="M193.31 264.861V280.309C219.693 275.54 237.666 267.287 250.81 253.142C267.498 238.131 276.246 219.007 279.458 193.309H264.31C261.071 214.8 253.597 231.023 240.146 243.809C229.427 254.348 214.806 260.448 193.31 264.861Z" fill="#141D24"></path><path d="M193.31 244.809V229.809C202.882 228.114 207.941 225.657 216.31 218.309C223.968 210.829 226.619 205.182 229.31 193.309H244.81C242.456 208.179 234.51 219.309 231.31 223.309C227.31 228.309 212.235 242.657 193.31 244.809Z" fill="#141D24"></path><path d="M264.861 176.458H280.31C275.541 150.075 267.287 132.102 253.142 118.958C238.131 102.269 219.008 93.5213 193.31 90.3094V105.458C214.8 108.696 231.024 116.17 243.81 129.621C254.348 140.341 260.448 154.962 264.861 176.458Z" fill="#141D24"></path><path d="M244.81 177.161H229.81C228.114 167.589 225.657 162.53 218.31 154.161C210.83 146.502 205.183 143.852 193.31 141.161V125.661C208.179 128.015 219.31 135.961 223.31 139.161C228.31 143.161 242.657 158.236 244.81 177.161Z" fill="#141D24"></path><path d="M105.758 194.309H90.3096C95.0786 220.693 103.332 238.665 117.477 251.809C132.488 268.498 151.611 277.246 177.31 280.458V265.309C155.819 262.071 139.595 254.597 126.81 241.146C116.271 230.426 110.171 215.806 105.758 194.309Z" fill="url(#paint3_linear_3_57)"></path><path d="M177.458 104.758V89.3093C151.075 94.0784 133.102 102.332 119.958 116.477C103.269 131.488 94.5214 150.611 91.3095 176.309H106.458C109.696 154.819 117.17 138.595 130.621 125.809C141.341 115.271 155.962 109.171 177.458 104.758Z" fill="#009BCB"></path><path d="M125.31 193.309L140.31 193.309C142.005 202.882 144.462 207.941 151.81 216.309C159.289 223.968 164.937 226.618 176.81 229.309L176.81 244.809C161.94 242.456 150.81 234.509 146.81 231.309C141.81 227.309 127.462 212.234 125.31 193.309Z" fill="url(#paint4_linear_3_57)"></path><path d="M177.07 125.57V140.57C167.498 142.265 162.439 144.723 154.07 152.07C146.412 159.55 143.761 165.197 141.07 177.07H125.57C127.924 162.2 135.87 151.07 139.07 147.07C143.07 142.07 158.145 127.722 177.07 125.57Z" fill="#009BCB"></path><defs><linearGradient id="paint0_linear_3_57" x1="336.604" y1="175.297" x2="192.715" y2="0.74374" gradientUnits="userSpaceOnUse"><stop stop-color="#141D24"></stop><stop offset="1" stop-color="#35414D"></stop></linearGradient><linearGradient id="paint1_linear_3_57" x1="88.8096" y1="194.309" x2="88.8096" y2="370.609" gradientUnits="userSpaceOnUse"><stop stop-color="#009BCB"></stop><stop offset="1" stop-color="#004D65"></stop></linearGradient><linearGradient id="paint2_linear_3_57" x1="174.704" y1="-0.71735" x2="1.51622" y2="177.499" gradientUnits="userSpaceOnUse"><stop stop-color="#06D6FA"></stop><stop offset="1" stop-color="#009BCB"></stop></linearGradient><linearGradient id="paint3_linear_3_57" x1="133.81" y1="194.309" x2="133.515" y2="282.349" gradientUnits="userSpaceOnUse"><stop stop-color="#009BCB"></stop><stop offset="1" stop-color="#004D65"></stop></linearGradient><linearGradient id="paint4_linear_3_57" x1="151.06" y1="193.309" x2="151.06" y2="244.809" gradientUnits="userSpaceOnUse"><stop stop-color="#009BCB"></stop><stop offset="1" stop-color="#004D65"></stop></linearGradient></defs></svg>