<svg xmlns="http://www.w3.org/2000/svg" width="15" height="15" viewBox="0 0 15 15" fill="none"><path d="M7.00941 0.028244C6.02564 0.0924034 5.12131 0.336818 4.19864 0.785929C0.703521 2.49683 -0.894337 6.58466 0.504934 10.2234C0.764624 10.8986 1.19846 11.6532 1.65979 12.2306C1.91643 12.5514 2.44803 13.08 2.79326 13.3549C3.85035 14.2043 5.09381 14.745 6.47475 14.9558C6.9147 15.02 8.00234 15.0292 8.43007 14.9711C10.1746 14.7267 11.6166 14.0148 12.8142 12.8142C14.0363 11.586 14.7543 10.092 14.9681 8.32611C15.017 7.92588 15.0079 7.03377 14.9529 6.6091C14.8704 5.98584 14.8307 5.82697 14.7237 5.72921C14.5954 5.61617 14.4518 5.61617 14.3204 5.73532C14.2044 5.83919 14.1982 5.90946 14.2746 6.31886C14.6351 8.265 14.076 10.3609 12.7867 11.9007C11.6624 13.248 10.1501 14.0729 8.35369 14.3295C7.7121 14.4181 6.63668 14.3631 5.95537 14.2012C1.65674 13.1808 -0.59493 8.45137 1.339 4.50103C2.02641 3.0987 3.10184 2.02328 4.50416 1.33586C6.19673 0.507908 8.15205 0.413197 9.9271 1.07923C10.3518 1.23504 10.4282 1.2381 10.5534 1.08839C10.6542 0.969239 10.6542 0.822591 10.5534 0.703439C10.4159 0.538459 9.4505 0.229886 8.68976 0.101569C8.43923 0.0618515 7.58073 -0.00841808 7.43713 0.000747681C7.40353 0.000747681 7.21105 0.012969 7.00941 0.028244Z" fill="white"></path><path d="M13.3764 1.20753C12.5576 2.03548 11.8549 2.8726 10.8834 4.18022C9.76516 5.68031 8.38117 7.75172 7.37601 9.42596C7.24159 9.64898 7.12243 9.82924 7.11021 9.8323C7.09799 9.8323 6.53279 9.36791 5.85759 8.79965C4.36666 7.55313 3.67008 6.98181 3.58148 6.93599C3.34929 6.81072 3.12015 6.99404 3.13848 7.28733C3.14154 7.33316 3.23014 7.42787 3.39817 7.56841C3.53566 7.68451 4.22613 8.25888 4.93187 8.84853C5.63762 9.43512 6.40141 10.0767 6.63055 10.2692C6.85969 10.4617 7.08272 10.6266 7.12855 10.6389C7.29963 10.6816 7.40046 10.5961 7.62043 10.2264C8.78445 8.28332 10.3487 5.93389 11.4944 4.40935C12.414 3.18728 13.0311 2.4571 13.8286 1.64136C14.3754 1.08532 14.3876 1.06699 14.3876 0.941727C14.3876 0.761472 14.2624 0.636209 14.076 0.636209C13.9446 0.636209 13.9385 0.64232 13.3764 1.20753Z" fill="white"></path></svg>