<svg xmlns="http://www.w3.org/2000/svg" width="30" height="30" viewBox="0 0 30 30" fill="none"><g clip-path="url(#clip0_14_578)"><path d="M17.5195 0.0645542C13.8105 0.486429 10.7109 3.07041 9.58594 6.67979C9.22852 7.83408 9.16992 8.25596 9.16992 9.63877C9.17578 10.6817 9.19336 10.9571 9.30469 11.461C10.1191 15.2228 12.9668 18.0528 16.7402 18.8731C17.4668 19.0255 19.0781 19.0899 19.8281 18.9903C22.9102 18.5802 25.5996 16.711 27.0879 13.9454C27.4453 13.2774 27.6797 12.6564 27.8906 11.8067C28.3301 10.0255 28.2656 8.34385 27.7031 6.5626C27.4922 5.89463 26.9414 4.73448 26.748 4.53526C26.4785 4.26573 26.0156 4.42393 26.0156 4.78721C26.0156 4.8751 26.1504 5.20323 26.3086 5.51963C26.6074 6.09385 26.918 6.84971 26.877 6.89073C26.8652 6.90244 26.5078 6.76768 26.0859 6.5919C25.248 6.24034 24.9551 6.19932 24.5684 6.35752C24.2754 6.48057 24.1992 6.55088 23.6602 7.24815C23.4023 7.58213 23.1445 7.88096 23.0801 7.91612C22.9863 7.96299 22.8574 7.93955 22.4941 7.82237C21.7793 7.58213 21.5508 7.60557 20.7422 7.99815C20.373 8.17979 20.0039 8.38487 19.9336 8.45518C19.541 8.81846 19.4473 9.51573 19.7227 10.0138C19.916 10.3712 20.0742 10.4767 20.7715 10.7228L21.3574 10.9278L21.7676 11.7306C21.9961 12.17 22.2539 12.6095 22.3477 12.7091C22.623 12.9962 22.9336 13.0665 23.9063 13.0665C24.6621 13.0665 24.7852 13.0782 24.9082 13.1778C24.9844 13.2364 25.1895 13.5763 25.3652 13.9337L25.6875 14.5841L25.4355 14.9063C25.0313 15.4278 24.0762 16.3067 23.4844 16.6993C23.0449 16.9923 21.9434 17.5782 21.8379 17.5782C21.8262 17.5782 21.7676 17.4728 21.709 17.3438L21.6035 17.1153L21.8203 16.5235C22.1367 15.6329 22.1426 15.6388 21.3809 14.1095C20.7188 12.7794 20.6016 12.5919 20.3203 12.4454C19.9863 12.2755 19.6875 12.3341 18.8438 12.756L18.0586 13.1485L16.2246 12.9024C14.3027 12.6446 14.1797 12.6095 14.1797 12.3341C14.1797 12.2521 14.2441 12.1583 14.3379 12.0939C14.5781 11.9356 14.6953 11.7774 14.7656 11.4845C14.8418 11.1446 14.8301 11.0919 14.2148 9.83213C13.9219 9.22862 13.7285 8.75401 13.7461 8.70127C13.7695 8.64854 13.8574 8.57237 13.9453 8.52549C14.0977 8.44932 14.1563 8.45518 14.7129 8.64268C15.5742 8.93565 15.709 8.92393 16.5879 8.49033C17.6074 7.99229 17.8301 7.75205 17.8301 7.16612C17.8301 6.74424 17.3027 5.66612 16.998 5.4669C16.6113 5.20909 16.2363 5.17393 15.75 5.36143C15.6914 5.38487 15.3809 5.19151 14.9414 4.86338C13.9512 4.1251 13.916 4.10166 13.5352 4.10166C13.2539 4.10166 13.0898 4.16026 12.2285 4.56455C11.1387 5.08018 11.1563 5.0919 11.707 4.33604C12.5566 3.1876 13.8398 2.19151 15.2637 1.57041C15.6152 1.41807 15.9082 1.30088 15.9141 1.30674C15.9258 1.3126 15.9023 1.44151 15.873 1.59385C15.8262 1.80479 15.832 1.95127 15.9082 2.23838C16.0898 2.95323 16.4004 3.25791 17.2676 3.56846L17.8418 3.7794L18.2637 4.59971C18.7324 5.51377 18.9023 5.69541 19.3887 5.8419C19.8223 5.96494 20.5664 5.92393 20.8887 5.75987C21.5215 5.43174 21.7676 4.78721 21.5332 4.08994C21.375 3.62705 21.416 3.58604 22.6289 2.98838L23.6895 2.46104L23.959 2.67784C24.1055 2.79502 24.3984 3.05284 24.6094 3.25205C24.8203 3.45713 25.0547 3.65049 25.125 3.69151C25.4063 3.83213 25.7813 3.52159 25.6992 3.20518C25.6465 2.98252 24.6973 2.11534 24.0059 1.65244C22.0898 0.375101 19.7871 -0.193258 17.5195 0.0645542ZM20.5957 1.07237C21.3047 1.25401 21.9902 1.5001 22.4707 1.74619L22.8223 1.92198L22.0254 2.30869C21.5859 2.51963 21.1406 2.75987 21.041 2.84776C20.6543 3.17002 20.4844 3.75596 20.6484 4.21885C20.7773 4.58213 20.7656 4.72862 20.5957 4.89268C20.4727 5.02159 20.4023 5.03916 20.0566 5.03916C19.7871 5.03916 19.6113 5.00987 19.5234 4.94541C19.4473 4.89854 19.2246 4.51768 19.0195 4.10752C18.5449 3.17002 18.3867 3.01182 17.6191 2.75987C17.0039 2.55479 16.8691 2.4376 16.7461 2.04502C16.6875 1.83409 16.6934 1.78721 16.875 1.43565C16.9863 1.22471 17.0918 1.03721 17.1211 1.01963C17.2734 0.925882 17.8418 0.890726 18.8672 0.902445C19.8574 0.920023 20.0859 0.94346 20.5957 1.07237ZM14.3027 5.48448C14.6719 5.75987 15.0527 6.03526 15.1465 6.09385C15.416 6.25791 15.7559 6.29307 16.0664 6.18174C16.2129 6.13487 16.377 6.10557 16.4238 6.12315C16.5352 6.17002 16.9922 7.13682 16.9512 7.24229C16.916 7.3419 15.7031 7.96885 15.5508 7.96885C15.498 7.96885 15.1816 7.8751 14.8418 7.75791C14.1152 7.51182 13.8691 7.51768 13.4355 7.81065C13.0898 8.04502 12.873 8.41416 12.8672 8.78916C12.8613 9.01768 12.9492 9.24033 13.4063 10.1661L13.9453 11.2735L13.6875 11.5138C13.2363 11.9239 13.1836 12.3048 13.4941 12.8966C13.7813 13.4532 13.8457 13.4767 16.0254 13.7638C17.0273 13.8985 17.9355 14.004 18.0527 14.004C18.1992 14.004 18.5156 13.881 19.0371 13.6231C19.4648 13.4122 19.8516 13.2423 19.8984 13.2423C19.957 13.2423 20.1973 13.6759 20.5723 14.4552C21.2402 15.8321 21.2344 15.8028 20.9238 16.506C20.7129 16.9864 20.707 17.1388 20.8535 17.5665L20.959 17.8712L20.748 17.9239C20.0449 18.1056 19.7695 18.1349 18.6621 18.1349C17.3555 18.1349 16.9512 18.0763 15.8965 17.7247C13.2539 16.8458 11.1563 14.7071 10.4063 12.1173C10.1836 11.338 10.0781 10.4942 10.0781 9.45713C10.0781 8.44346 10.1309 7.96885 10.3184 7.20713C10.5527 6.26377 10.4238 6.38682 12 5.64268C12.7617 5.2794 13.4414 4.98643 13.5117 4.98057C13.5762 4.98057 13.9336 5.20909 14.3027 5.48448ZM26.1563 7.57041L27.1816 7.99815L27.2285 8.32041C27.3164 8.91807 27.2813 10.5353 27.1641 11.0743C27.0176 11.7833 26.8594 12.3165 26.6133 12.8907C26.25 13.7579 26.2793 13.7462 25.9277 13.1134C25.6758 12.6622 25.5762 12.5392 25.3418 12.3927C25.0605 12.2169 25.043 12.2169 24.0586 12.1876C23.5078 12.17 23.0215 12.1349 22.9805 12.1056C22.9336 12.0821 22.7344 11.713 22.5293 11.2853C22.0664 10.3243 21.9375 10.1954 21.1758 9.92588C20.4258 9.65635 20.3086 9.54502 20.4258 9.22862C20.4727 9.11143 21.5684 8.55479 21.75 8.55479C21.8262 8.55479 22.0957 8.6251 22.3535 8.70713C23.2266 8.98838 23.5488 8.84776 24.3223 7.83994C24.7383 7.28916 24.8789 7.14854 24.9902 7.14854C25.0723 7.14854 25.5938 7.3419 26.1563 7.57041Z" fill="#F17300"></path><path d="M27.3926 18.8145C27.2637 18.8438 27.0527 18.9141 26.9238 18.9668C26.7949 19.0254 25.7402 19.8633 24.5801 20.8301C23.4199 21.7969 22.4238 22.623 22.3711 22.6699C22.2832 22.7344 22.2598 22.7344 22.2363 22.6406C22.0547 22.0371 21.5039 21.4277 20.9297 21.2051C20.6016 21.0703 20.5371 21.0703 17.7832 21.0352C14.5664 21 14.7012 21.0176 13.8574 20.4492C12.8438 19.7637 12.0293 19.5 10.8984 19.4883C9.53906 19.4766 8.44922 19.8691 7.42969 20.748L7.10156 21.0352H6.1582H5.21484V20.625C5.21484 20.1914 5.11523 19.9043 4.95117 19.8398C4.89844 19.8223 3.82617 19.8047 2.57227 19.8047H0.287109L0.146484 19.9512L0 20.0918V24.9023V29.7129L0.146484 29.8535L0.287109 30H2.57227C3.82617 30 4.89844 29.9824 4.95117 29.9648C5.11523 29.9004 5.21484 29.6133 5.21484 29.1797V28.7695H6.25781H7.29492L9.05273 29.3027C10.0605 29.6074 11.0566 29.8652 11.3906 29.918C11.8652 29.9883 12.6621 30 16.0488 29.9883C20.0801 29.9707 20.1328 29.9707 20.5078 29.8418C21.1172 29.6367 21.5332 29.3379 22.8867 28.1543C24.4688 26.7715 24.4922 26.748 24.4922 26.5488C24.4922 26.3203 24.293 26.1328 24.0527 26.1328C23.877 26.1328 23.6836 26.2852 22.4238 27.3867C21.6328 28.0781 20.877 28.7051 20.7363 28.7871C20.1738 29.1152 20.1211 29.1211 15.9023 29.1211C13.4355 29.1211 11.8535 29.0977 11.5664 29.0566C11.3145 29.0215 10.2773 28.7461 9.26367 28.4414L7.41797 27.8906H6.31641H5.21484V26.8008V25.7109L5.04492 25.541C4.83984 25.3418 4.69922 25.3301 4.48828 25.4941L4.33594 25.6113V27.3691V29.1211H2.60742H0.878906V24.9023V20.6836H2.60742H4.33594V22.4004C4.33594 24.0527 4.3418 24.1289 4.45312 24.2285C4.61719 24.375 4.89844 24.3633 5.05664 24.2051C5.17969 24.0879 5.18555 24.0176 5.20312 22.998L5.2207 21.9141H6.35156H7.48242L7.82227 21.5918C8.68945 20.7539 9.63281 20.373 10.8398 20.373C11.8066 20.373 12.5215 20.5898 13.2832 21.123C13.7168 21.4277 14.0098 21.5859 14.4727 21.7559C14.7773 21.873 14.9473 21.8789 17.6367 21.9141C19.752 21.9375 20.5254 21.9668 20.6543 22.0195C21.3047 22.3008 21.5918 23.168 21.2578 23.8359C21.0703 24.2168 20.7832 24.4219 20.3555 24.4922C20.168 24.5273 18.7266 24.5508 17.1562 24.5508C14.373 24.5508 14.291 24.5566 14.1797 24.668C13.957 24.8906 14.0508 25.2539 14.3613 25.3652C14.6074 25.4531 19.916 25.4531 20.4492 25.3652C21.1348 25.2539 21.7852 24.791 22.0957 24.1875C22.166 24.0527 22.5176 23.7129 23.0391 23.2676C27.3809 19.6289 27.1816 19.7812 27.5566 19.6816C28.1074 19.5352 28.7402 19.834 28.9805 20.3555C29.1562 20.7246 29.1562 21.0703 28.998 21.4453C28.8926 21.6973 28.6406 21.9375 27.0762 23.3086C26.0918 24.1758 25.2363 24.9434 25.1777 25.0078C24.9316 25.2832 25.2188 25.7871 25.5703 25.6992C25.8047 25.6406 29.4434 22.4297 29.6543 22.1016C29.9004 21.7148 29.9707 21.4277 29.9707 20.8594C29.9648 20.4492 29.9414 20.3027 29.8184 20.0391C29.3848 19.1016 28.3711 18.5918 27.3926 18.8145Z" fill="#F17300"></path></g><defs><clipPath id="clip0_14_578"><rect width="30" height="30" fill="white"></rect></clipPath></defs></svg>