<svg xmlns="http://www.w3.org/2000/svg" width="30" height="30" viewBox="0 0 30 30" fill="none"><path d="M14.5605 0.990233C14.0215 1.13086 13.5469 1.51758 13.3008 2.02148C13.0898 2.44922 13.0957 3.12305 13.3066 3.57422C13.4473 3.86719 13.8984 4.39453 14.0156 4.39453C14.0391 4.39453 14.0625 5.0918 14.0625 5.94727V7.5H12.4219H10.7812L10.1074 7.95117C9.73828 8.19727 9.43359 8.41406 9.43359 8.4375C9.43359 8.46094 9.73828 8.67773 10.1074 8.92383L10.7812 9.375H15H19.2188L19.8926 8.92383C20.2617 8.67773 20.5664 8.46094 20.5664 8.4375C20.5664 8.41406 20.2617 8.19727 19.8926 7.95117L19.2188 7.5H17.5781H15.9375V5.95898V4.42383L16.1426 4.2832C16.4062 4.10742 16.6816 3.68555 16.7988 3.28711C17.0391 2.44922 16.6055 1.5 15.7969 1.125C15.4863 0.978515 14.8594 0.908202 14.5605 0.990233Z" fill="#F17300"></path><path d="M13.0664 10.4531C13.0664 10.5293 12.9727 13.0488 12.8613 16.0605L12.6562 21.5273L13.8105 22.7109C14.4492 23.3555 14.9824 23.8887 15 23.8887C15.0176 23.8887 15.5508 23.3555 16.1895 22.7109L17.3438 21.5273L17.1387 16.0547C17.0273 13.043 16.9336 10.5176 16.9336 10.4473V10.3125H15H13.0664V10.4531ZM15.4688 16.1719V19.2188H15H14.5312V16.1719V13.125H15H15.4688V16.1719ZM15.4688 20.625V21.0938H15H14.5312V20.625V20.1562H15H15.4688V20.625Z" fill="#F17300"></path><path d="M4.88672 16.3476C4.56445 16.4765 3.72656 17.5781 3.31641 18.416C2.77148 19.5293 2.55469 20.4726 2.55469 21.7675C2.56055 23.9531 3.35156 25.7519 5.00391 27.2988C6 28.2363 7.47656 28.9335 8.92969 29.1621C9.62695 29.2675 10.8691 29.2324 11.5137 29.0918C12.5801 28.8632 13.6816 28.3652 14.5195 27.7324L15 27.3691L15.4863 27.7324C16.3359 28.3769 17.4258 28.8691 18.5332 29.1035C19.2012 29.25 20.7598 29.25 21.4277 29.1035C22.4766 28.8808 23.5664 28.4003 24.3574 27.8261C24.8145 27.4921 25.5703 26.7656 25.9043 26.332C27.9961 23.6132 27.9727 19.7519 25.8398 17.08C25.3008 16.4062 25.0312 16.2187 24.7734 16.3476C24.6973 16.3886 22.4707 18.5859 19.8223 21.2343L15 26.0449L10.1836 21.2343C7.5293 18.5859 5.30273 16.3886 5.23242 16.3535C5.08594 16.2773 5.05664 16.2773 4.88672 16.3476ZM14.2969 26.7246C14.2969 26.8066 13.4004 27.3984 12.9199 27.6269C12.4688 27.8437 11.4844 28.1835 11.3027 28.1835C11.2734 28.1835 11.25 27.9843 11.25 27.7382C11.25 27.0527 11.0273 26.7421 10.4004 26.5429C9.90234 26.3847 9.70312 26.1269 9.60352 25.5351C9.51562 25.0253 9.32227 24.7089 9.00586 24.5566C8.71289 24.416 8.49609 24.4043 7.96875 24.5214C7.21875 24.6855 6.7793 24.5859 6.49219 24.1875C6.36914 24.0117 6.35156 23.9121 6.32227 23.1093C6.28711 22.1484 6.22266 21.9375 5.87109 21.6855C5.7832 21.621 5.2207 21.4335 4.62891 21.2695C4.03125 21.0996 3.53906 20.9589 3.5332 20.9531C3.52734 20.9472 3.5625 20.748 3.60938 20.5078C3.78516 19.5644 4.20703 18.6035 4.75781 17.8535L5.05664 17.4492L9.67969 22.0722C12.2168 24.6093 14.2969 26.707 14.2969 26.7246ZM25.4062 18.0878C25.6992 18.5214 26.2324 19.6054 26.1797 19.6582C26.1738 19.664 25.7109 19.8984 25.1543 20.1796C24.6035 20.455 24.1113 20.7363 24.0586 20.8125C23.8477 21.1171 24.0176 21.4921 24.4277 21.6152C24.8203 21.7324 24.9668 22.0957 24.7324 22.3886C24.6738 22.4707 24.4336 22.664 24.2109 22.8222C23.6309 23.2265 23.543 23.4668 23.8359 23.789C23.9941 23.9648 24.0059 23.9707 24.9844 24.0703C25.5996 24.1289 25.9805 24.1933 25.998 24.2343C26.0098 24.2753 25.9395 24.4746 25.8398 24.6738C25.4355 25.4765 24.8027 26.2793 24.1406 26.8066C23.7715 27.1113 23.1094 27.539 23.0215 27.539C22.998 27.539 22.6934 27.1289 22.3477 26.6308C21.5801 25.5117 21.4688 25.4062 21.082 25.4414C20.7539 25.4765 20.5723 25.6171 20.4199 25.957C20.291 26.2441 19.9512 26.4257 19.5469 26.4257C19.1016 26.4257 18.9785 26.5312 18.5156 27.2871C18.2812 27.6679 18.082 27.9902 18.0703 28.0019C18.0352 28.0429 17.1328 27.6679 16.8164 27.4921C16.5527 27.3398 16.0137 26.9824 15.791 26.8066C15.6797 26.7187 15.8789 26.5136 20.3027 22.0898C23.9473 18.4453 24.9434 17.4785 25.002 17.5312C25.0488 17.5664 25.2305 17.8183 25.4062 18.0878Z" fill="#F17300"></path></svg>