<svg xmlns="http://www.w3.org/2000/svg" width="30" height="30" viewBox="0 0 30 30" fill="none"><path d="M14.1797 0.0820322C13.2656 0.281251 12.7207 0.580079 12.0352 1.25977C11.6016 1.6875 11.4609 1.88086 11.2617 2.28516C10.9102 3 10.8164 3.41602 10.8164 4.21875C10.8164 5.02148 10.9102 5.4375 11.2617 6.15234C11.4609 6.55664 11.6016 6.75 12.0352 7.18359C12.4688 7.61719 12.6621 7.75781 13.0664 7.95703C13.7812 8.30859 14.1973 8.40234 15 8.40234C15.8027 8.40234 16.2188 8.30859 16.9336 7.95703C17.3379 7.75781 17.5312 7.61719 17.9648 7.18359C18.3984 6.75 18.5391 6.55664 18.7383 6.15234C19.0898 5.4375 19.1836 5.02148 19.1836 4.21875C19.1836 3.41602 19.0898 3 18.7383 2.28516C18.5391 1.88086 18.3984 1.6875 17.9648 1.25391C17.1387 0.433594 16.3184 0.0761728 15.1465 0.0292978C14.7773 0.0117197 14.4199 0.0351572 14.1797 0.0820322ZM15.7441 1.02539C17.2266 1.37695 18.2812 2.70117 18.2812 4.21875C18.2812 5.96484 16.9277 7.38281 15.1758 7.48242C13.2949 7.58789 11.7188 6.10547 11.7188 4.21875C11.7188 2.71289 12.7676 1.38281 14.2266 1.02539C14.6719 0.919922 15.2988 0.919922 15.7441 1.02539Z" fill="#F17300"></path><path d="M15.6269 4.10162C14.8008 4.8106 14.1035 5.39068 14.0801 5.39068C14.0508 5.39068 13.793 5.1563 13.5059 4.86334C13.2187 4.57623 12.9141 4.31255 12.8203 4.27154C12.457 4.12505 12.0937 4.49419 12.2461 4.85748C12.2812 4.95123 12.668 5.3731 13.0957 5.79498C13.9101 6.59771 13.9805 6.63873 14.3027 6.48638C14.5605 6.36334 17.6894 3.56841 17.7422 3.40435C17.8476 3.10552 17.6367 2.81841 17.3086 2.81255C17.1562 2.81255 16.8926 3.01763 15.6269 4.10162Z" fill="#F17300"></path><path d="M10.8925 9.50977C10.1484 10.0195 7.16598 12.334 7.10153 12.4512C7.03708 12.5742 7.06637 13.1367 7.27145 15.9785L7.51169 19.3652L9.04098 21.6211C9.87887 22.8633 10.6172 23.9414 10.6757 24.0176C10.7754 24.1465 10.7812 24.334 10.7812 26.9355V29.7129L10.9277 29.8535C11.1152 30.0469 11.3847 30.0469 11.5722 29.8535L11.7187 29.7129V26.8184V23.918L11.0625 22.9453C10.6992 22.4121 9.9609 21.3223 9.41598 20.5254L8.43161 19.0723L8.20309 16.0254C8.07419 14.3496 7.96872 12.9609 7.96872 12.9375C7.96872 12.9141 8.60153 12.416 9.37497 11.8359L10.7812 10.7812V12.8906V15H10.3125H9.84372V13.9746C9.84372 12.9609 9.84372 12.9434 9.69723 12.8027C9.60934 12.709 9.4863 12.6562 9.37497 12.6562C9.26364 12.6562 9.14059 12.709 9.0527 12.8027L8.90622 12.9434V14.2969V15.6504L9.0527 15.791C9.19333 15.9375 9.20505 15.9375 10.3125 15.9375C11.4199 15.9375 11.4316 15.9375 11.5722 15.791L11.7187 15.6504V12.9785V10.3125H12.6562H13.5937V12.6562V15H13.2715C13.0019 15 12.9199 15.0234 12.8027 15.1465C12.6093 15.334 12.6093 15.6035 12.8027 15.791C12.9375 15.9316 12.9843 15.9375 13.5937 15.9375C14.2031 15.9375 14.25 15.9316 14.3847 15.791L14.5312 15.6504V12.9785V10.3125H15.4687H16.4062V11.4844V12.6562H15.8437C15.3047 12.6562 15.2754 12.6621 15.1113 12.8262C14.9238 13.0195 14.9062 13.1426 15.0058 13.6875C15.1933 14.7363 16.1367 15.6621 17.2324 15.8906C17.4257 15.9316 17.5781 15.9785 17.5781 15.9961C17.5781 16.0195 16.8047 16.6934 15.8672 17.4961C13.5761 19.4414 13.5937 19.4238 13.5937 19.6641C13.5937 19.9512 13.7871 20.1152 14.1035 20.0801C14.3203 20.0566 14.5371 19.8926 16.33 18.3633C17.4199 17.4375 18.498 16.5234 18.7207 16.3301C19.1718 15.9492 19.2715 15.8086 19.2715 15.5859C19.2715 15.2988 19.0078 15.1172 18.5742 15.1172C18.1816 15.1172 17.455 14.9473 17.0859 14.7773C16.6523 14.5723 16.207 14.1855 16.0547 13.8809C15.9902 13.7578 15.9375 13.6406 15.9375 13.623C15.9375 13.6055 17.2031 13.5938 18.75 13.5938H21.5625V15.0059V16.4121L19.9218 19.9805L18.2812 23.5488V26.6309V29.7129L18.4277 29.8535C18.6152 30.0469 18.8847 30.0469 19.0722 29.8535L19.2187 29.7129V26.7129V23.7129L20.8593 20.1445L22.5 16.5762V14.7598V12.9434L22.3535 12.8027C22.2129 12.6562 22.1953 12.6562 21.1816 12.6562H20.1562V11.1621V9.66211L20.0097 9.52148L19.8691 9.375H15.4804H11.0918L10.8925 9.50977ZM19.2187 11.4844V12.6562H18.2812H17.3437V11.4844V10.3125H18.2812H19.2187V11.4844Z" fill="#F17300"></path><path d="M16.5527 24.0527L16.4062 24.1934V25.5469V26.9004L16.5527 27.041C16.7402 27.2344 17.0098 27.2344 17.1973 27.041L17.3438 26.9004V25.5469V24.1934L17.1973 24.0527C17.1094 23.959 16.9863 23.9063 16.875 23.9063C16.7637 23.9063 16.6406 23.959 16.5527 24.0527Z" fill="#F17300"></path><path d="M16.5527 28.2715C16.4121 28.4062 16.4062 28.4531 16.4062 29.0625C16.4062 29.6719 16.4121 29.7188 16.5527 29.8535C16.6406 29.9473 16.7637 30 16.875 30C16.9863 30 17.1094 29.9473 17.1973 29.8535C17.3379 29.7188 17.3438 29.6719 17.3438 29.0625C17.3438 28.4531 17.3379 28.4062 17.1973 28.2715C17.1094 28.1777 16.9863 28.125 16.875 28.125C16.7637 28.125 16.6406 28.1777 16.5527 28.2715Z" fill="#F17300"></path></svg>