<?xml version="1.0" encoding="UTF-8"?>
<svg xmlns="http://www.w3.org/2000/svg" width="690" height="93" viewBox="0 0 690 93" fill="none">
  <path d="M7.53906 1.875V36H0.53125V1.875H7.53906ZM20.3125 16.0547V36H13.5625V10.6406H19.8906L20.3125 16.0547ZM19.3281 22.4297H17.5C17.5 20.5547 17.7422 18.8672 18.2266 17.3672C18.7109 15.8516 19.3906 14.5625 20.2656 13.5C21.1406 12.4219 22.1797 11.6016 23.3828 11.0391C24.6016 10.4609 25.9609 10.1719 27.4609 10.1719C28.6484 10.1719 29.7344 10.3438 30.7188 10.6875C31.7031 11.0312 32.5469 11.5781 33.25 12.3281C33.9688 13.0781 34.5156 14.0703 34.8906 15.3047C35.2812 16.5391 35.4766 18.0469 35.4766 19.8281V36H28.6797V19.8047C28.6797 18.6797 28.5234 17.8047 28.2109 17.1797C27.8984 16.5547 27.4375 16.1172 26.8281 15.8672C26.2344 15.6016 25.5 15.4688 24.625 15.4688C23.7188 15.4688 22.9297 15.6484 22.2578 16.0078C21.6016 16.3672 21.0547 16.8672 20.6172 17.5078C20.1953 18.1328 19.875 18.8672 19.6562 19.7109C19.4375 20.5547 19.3281 21.4609 19.3281 22.4297ZM55.5859 30.4688V0H62.3828V36H56.2656L55.5859 30.4688ZM39.5547 23.625V23.1328C39.5547 21.1953 39.7734 19.4375 40.2109 17.8594C40.6484 16.2656 41.2891 14.8984 42.1328 13.7578C42.9766 12.6172 44.0156 11.7344 45.25 11.1094C46.4844 10.4844 47.8906 10.1719 49.4688 10.1719C50.9531 10.1719 52.25 10.4844 53.3594 11.1094C54.4844 11.7344 55.4375 12.625 56.2188 13.7812C57.0156 14.9219 57.6562 16.2734 58.1406 17.8359C58.625 19.3828 58.9766 21.0781 59.1953 22.9219V24C58.9766 25.7656 58.625 27.4062 58.1406 28.9219C57.6562 30.4375 57.0156 31.7656 56.2188 32.9062C55.4375 34.0312 54.4844 34.9062 53.3594 35.5312C52.2344 36.1562 50.9219 36.4688 49.4219 36.4688C47.8438 36.4688 46.4375 36.1484 45.2031 35.5078C43.9844 34.8672 42.9531 33.9688 42.1094 32.8125C41.2812 31.6562 40.6484 30.2969 40.2109 28.7344C39.7734 27.1719 39.5547 25.4688 39.5547 23.625ZM46.3047 23.1328V23.625C46.3047 24.6719 46.3828 25.6484 46.5391 26.5547C46.7109 27.4609 46.9844 28.2656 47.3594 28.9688C47.75 29.6562 48.25 30.1953 48.8594 30.5859C49.4844 30.9609 50.2422 31.1484 51.1328 31.1484C52.2891 31.1484 53.2422 30.8906 53.9922 30.375C54.7422 29.8438 55.3125 29.1172 55.7031 28.1953C56.1094 27.2734 56.3438 26.2109 56.4062 25.0078V21.9375C56.3594 20.9531 56.2188 20.0703 55.9844 19.2891C55.7656 18.4922 55.4375 17.8125 55 17.25C54.5781 16.6875 54.0469 16.25 53.4062 15.9375C52.7812 15.625 52.0391 15.4688 51.1797 15.4688C50.3047 15.4688 49.5547 15.6719 48.9297 16.0781C48.3047 16.4688 47.7969 17.0078 47.4062 17.6953C47.0312 18.3828 46.75 19.1953 46.5625 20.1328C46.3906 21.0547 46.3047 22.0547 46.3047 23.1328ZM79.3281 36.4688C77.3594 36.4688 75.5938 36.1562 74.0312 35.5312C72.4688 34.8906 71.1406 34.0078 70.0469 32.8828C68.9688 31.7578 68.1406 30.4531 67.5625 28.9688C66.9844 27.4688 66.6953 25.875 66.6953 24.1875V23.25C66.6953 21.3281 66.9688 19.5703 67.5156 17.9766C68.0625 16.3828 68.8438 15 69.8594 13.8281C70.8906 12.6562 72.1406 11.7578 73.6094 11.1328C75.0781 10.4922 76.7344 10.1719 78.5781 10.1719C80.375 10.1719 81.9688 10.4688 83.3594 11.0625C84.75 11.6562 85.9141 12.5 86.8516 13.5938C87.8047 14.6875 88.5234 16 89.0078 17.5312C89.4922 19.0469 89.7344 20.7344 89.7344 22.5938V25.4062H69.5781V20.9062H83.1016V20.3906C83.1016 19.4531 82.9297 18.6172 82.5859 17.8828C82.2578 17.1328 81.7578 16.5391 81.0859 16.1016C80.4141 15.6641 79.5547 15.4453 78.5078 15.4453C77.6172 15.4453 76.8516 15.6406 76.2109 16.0312C75.5703 16.4219 75.0469 16.9688 74.6406 17.6719C74.25 18.375 73.9531 19.2031 73.75 20.1562C73.5625 21.0938 73.4688 22.125 73.4688 23.25V24.1875C73.4688 25.2031 73.6094 26.1406 73.8906 27C74.1875 27.8594 74.6016 28.6016 75.1328 29.2266C75.6797 29.8516 76.3359 30.3359 77.1016 30.6797C77.8828 31.0234 78.7656 31.1953 79.75 31.1953C80.9688 31.1953 82.1016 30.9609 83.1484 30.4922C84.2109 30.0078 85.125 29.2812 85.8906 28.3125L89.1719 31.875C88.6406 32.6406 87.9141 33.375 86.9922 34.0781C86.0859 34.7812 84.9922 35.3594 83.7109 35.8125C82.4297 36.25 80.9688 36.4688 79.3281 36.4688ZM100.328 15.5156V45.75H93.5781V10.6406H99.8359L100.328 15.5156ZM116.383 23.0391V23.5312C116.383 25.375 116.164 27.0859 115.727 28.6641C115.305 30.2422 114.68 31.6172 113.852 32.7891C113.023 33.9453 111.992 34.8516 110.758 35.5078C109.539 36.1484 108.133 36.4688 106.539 36.4688C104.992 36.4688 103.648 36.1562 102.508 35.5312C101.367 34.9062 100.406 34.0312 99.625 32.9062C98.8594 31.7656 98.2422 30.4453 97.7734 28.9453C97.3047 27.4453 96.9453 25.8359 96.6953 24.1172V22.8281C96.9453 20.9844 97.3047 19.2969 97.7734 17.7656C98.2422 16.2188 98.8594 14.8828 99.625 13.7578C100.406 12.6172 101.359 11.7344 102.484 11.1094C103.625 10.4844 104.961 10.1719 106.492 10.1719C108.102 10.1719 109.516 10.4766 110.734 11.0859C111.969 11.6953 113 12.5703 113.828 13.7109C114.672 14.8516 115.305 16.2109 115.727 17.7891C116.164 19.3672 116.383 21.1172 116.383 23.0391ZM109.609 23.5312V23.0391C109.609 21.9609 109.516 20.9688 109.328 20.0625C109.156 19.1406 108.875 18.3359 108.484 17.6484C108.109 16.9609 107.609 16.4297 106.984 16.0547C106.375 15.6641 105.633 15.4688 104.758 15.4688C103.836 15.4688 103.047 15.6172 102.391 15.9141C101.75 16.2109 101.227 16.6406 100.82 17.2031C100.414 17.7656 100.109 18.4375 99.9062 19.2188C99.7031 20 99.5781 20.8828 99.5312 21.8672V25.125C99.6094 26.2812 99.8281 27.3203 100.188 28.2422C100.547 29.1484 101.102 29.8672 101.852 30.3984C102.602 30.9297 103.586 31.1953 104.805 31.1953C105.695 31.1953 106.445 31 107.055 30.6094C107.664 30.2031 108.156 29.6484 108.531 28.9453C108.922 28.2422 109.195 27.4297 109.352 26.5078C109.523 25.5859 109.609 24.5938 109.609 23.5312ZM132.25 36.4688C130.281 36.4688 128.516 36.1562 126.953 35.5312C125.391 34.8906 124.062 34.0078 122.969 32.8828C121.891 31.7578 121.062 30.4531 120.484 28.9688C119.906 27.4688 119.617 25.875 119.617 24.1875V23.25C119.617 21.3281 119.891 19.5703 120.438 17.9766C120.984 16.3828 121.766 15 122.781 13.8281C123.812 12.6562 125.062 11.7578 126.531 11.1328C128 10.4922 129.656 10.1719 131.5 10.1719C133.297 10.1719 134.891 10.4688 136.281 11.0625C137.672 11.6562 138.836 12.5 139.773 13.5938C140.727 14.6875 141.445 16 141.93 17.5312C142.414 19.0469 142.656 20.7344 142.656 22.5938V25.4062H122.5V20.9062H136.023V20.3906C136.023 19.4531 135.852 18.6172 135.508 17.8828C135.18 17.1328 134.68 16.5391 134.008 16.1016C133.336 15.6641 132.477 15.4453 131.43 15.4453C130.539 15.4453 129.773 15.6406 129.133 16.0312C128.492 16.4219 127.969 16.9688 127.562 17.6719C127.172 18.375 126.875 19.2031 126.672 20.1562C126.484 21.0938 126.391 22.125 126.391 23.25V24.1875C126.391 25.2031 126.531 26.1406 126.812 27C127.109 27.8594 127.523 28.6016 128.055 29.2266C128.602 29.8516 129.258 30.3359 130.023 30.6797C130.805 31.0234 131.688 31.1953 132.672 31.1953C133.891 31.1953 135.023 30.9609 136.07 30.4922C137.133 30.0078 138.047 29.2812 138.812 28.3125L142.094 31.875C141.562 32.6406 140.836 33.375 139.914 34.0781C139.008 34.7812 137.914 35.3594 136.633 35.8125C135.352 36.25 133.891 36.4688 132.25 36.4688ZM153.109 16.0547V36H146.359V10.6406H152.688L153.109 16.0547ZM152.125 22.4297H150.297C150.297 20.5547 150.539 18.8672 151.023 17.3672C151.508 15.8516 152.188 14.5625 153.062 13.5C153.938 12.4219 154.977 11.6016 156.18 11.0391C157.398 10.4609 158.758 10.1719 160.258 10.1719C161.445 10.1719 162.531 10.3438 163.516 10.6875C164.5 11.0312 165.344 11.5781 166.047 12.3281C166.766 13.0781 167.312 14.0703 167.688 15.3047C168.078 16.5391 168.273 18.0469 168.273 19.8281V36H161.477V19.8047C161.477 18.6797 161.32 17.8047 161.008 17.1797C160.695 16.5547 160.234 16.1172 159.625 15.8672C159.031 15.6016 158.297 15.4688 157.422 15.4688C156.516 15.4688 155.727 15.6484 155.055 16.0078C154.398 16.3672 153.852 16.8672 153.414 17.5078C152.992 18.1328 152.672 18.8672 152.453 19.7109C152.234 20.5547 152.125 21.4609 152.125 22.4297ZM188.383 30.4688V0H195.18V36H189.062L188.383 30.4688ZM172.352 23.625V23.1328C172.352 21.1953 172.57 19.4375 173.008 17.8594C173.445 16.2656 174.086 14.8984 174.93 13.7578C175.773 12.6172 176.812 11.7344 178.047 11.1094C179.281 10.4844 180.688 10.1719 182.266 10.1719C183.75 10.1719 185.047 10.4844 186.156 11.1094C187.281 11.7344 188.234 12.625 189.016 13.7812C189.812 14.9219 190.453 16.2734 190.938 17.8359C191.422 19.3828 191.773 21.0781 191.992 22.9219V24C191.773 25.7656 191.422 27.4062 190.938 28.9219C190.453 30.4375 189.812 31.7656 189.016 32.9062C188.234 34.0312 187.281 34.9062 186.156 35.5312C185.031 36.1562 183.719 36.4688 182.219 36.4688C180.641 36.4688 179.234 36.1484 178 35.5078C176.781 34.8672 175.75 33.9688 174.906 32.8125C174.078 31.6562 173.445 30.2969 173.008 28.7344C172.57 27.1719 172.352 25.4688 172.352 23.625ZM179.102 23.1328V23.625C179.102 24.6719 179.18 25.6484 179.336 26.5547C179.508 27.4609 179.781 28.2656 180.156 28.9688C180.547 29.6562 181.047 30.1953 181.656 30.5859C182.281 30.9609 183.039 31.1484 183.93 31.1484C185.086 31.1484 186.039 30.8906 186.789 30.375C187.539 29.8438 188.109 29.1172 188.5 28.1953C188.906 27.2734 189.141 26.2109 189.203 25.0078V21.9375C189.156 20.9531 189.016 20.0703 188.781 19.2891C188.562 18.4922 188.234 17.8125 187.797 17.25C187.375 16.6875 186.844 16.25 186.203 15.9375C185.578 15.625 184.836 15.4688 183.977 15.4688C183.102 15.4688 182.352 15.6719 181.727 16.0781C181.102 16.4688 180.594 17.0078 180.203 17.6953C179.828 18.3828 179.547 19.1953 179.359 20.1328C179.188 21.0547 179.102 22.0547 179.102 23.1328ZM212.125 36.4688C210.156 36.4688 208.391 36.1562 206.828 35.5312C205.266 34.8906 203.938 34.0078 202.844 32.8828C201.766 31.7578 200.938 30.4531 200.359 28.9688C199.781 27.4688 199.492 25.875 199.492 24.1875V23.25C199.492 21.3281 199.766 19.5703 200.312 17.9766C200.859 16.3828 201.641 15 202.656 13.8281C203.688 12.6562 204.938 11.7578 206.406 11.1328C207.875 10.4922 209.531 10.1719 211.375 10.1719C213.172 10.1719 214.766 10.4688 216.156 11.0625C217.547 11.6562 218.711 12.5 219.648 13.5938C220.602 14.6875 221.32 16 221.805 17.5312C222.289 19.0469 222.531 20.7344 222.531 22.5938V25.4062H202.375V20.9062H215.898V20.3906C215.898 19.4531 215.727 18.6172 215.383 17.8828C215.055 17.1328 214.555 16.5391 213.883 16.1016C213.211 15.6641 212.352 15.4453 211.305 15.4453C210.414 15.4453 209.648 15.6406 209.008 16.0312C208.367 16.4219 207.844 16.9688 207.438 17.6719C207.047 18.375 206.75 19.2031 206.547 20.1562C206.359 21.0938 206.266 22.125 206.266 23.25V24.1875C206.266 25.2031 206.406 26.1406 206.688 27C206.984 27.8594 207.398 28.6016 207.93 29.2266C208.477 29.8516 209.133 30.3359 209.898 30.6797C210.68 31.0234 211.562 31.1953 212.547 31.1953C213.766 31.1953 214.898 30.9609 215.945 30.4922C217.008 30.0078 217.922 29.2812 218.688 28.3125L221.969 31.875C221.438 32.6406 220.711 33.375 219.789 34.0781C218.883 34.7812 217.789 35.3594 216.508 35.8125C215.227 36.25 213.766 36.4688 212.125 36.4688ZM232.984 16.0547V36H226.234V10.6406H232.562L232.984 16.0547ZM232 22.4297H230.172C230.172 20.5547 230.414 18.8672 230.898 17.3672C231.383 15.8516 232.062 14.5625 232.938 13.5C233.812 12.4219 234.852 11.6016 236.055 11.0391C237.273 10.4609 238.633 10.1719 240.133 10.1719C241.32 10.1719 242.406 10.3438 243.391 10.6875C244.375 11.0312 245.219 11.5781 245.922 12.3281C246.641 13.0781 247.188 14.0703 247.562 15.3047C247.953 16.5391 248.148 18.0469 248.148 19.8281V36H241.352V19.8047C241.352 18.6797 241.195 17.8047 240.883 17.1797C240.57 16.5547 240.109 16.1172 239.5 15.8672C238.906 15.6016 238.172 15.4688 237.297 15.4688C236.391 15.4688 235.602 15.6484 234.93 16.0078C234.273 16.3672 233.727 16.8672 233.289 17.5078C232.867 18.1328 232.547 18.8672 232.328 19.7109C232.109 20.5547 232 21.4609 232 22.4297ZM265.703 10.6406V15.4219H250.938V10.6406H265.703ZM254.594 4.38281H261.344V28.3594C261.344 29.0938 261.438 29.6562 261.625 30.0469C261.828 30.4375 262.125 30.7109 262.516 30.8672C262.906 31.0078 263.398 31.0781 263.992 31.0781C264.414 31.0781 264.789 31.0625 265.117 31.0312C265.461 30.9844 265.75 30.9375 265.984 30.8906L266.008 35.8594C265.43 36.0469 264.805 36.1953 264.133 36.3047C263.461 36.4141 262.719 36.4688 261.906 36.4688C260.422 36.4688 259.125 36.2266 258.016 35.7422C256.922 35.2422 256.078 34.4453 255.484 33.3516C254.891 32.2578 254.594 30.8203 254.594 29.0391V4.38281ZM285.133 1.875H291.086L299.852 26.9297L308.617 1.875H314.57L302.242 36H297.461L285.133 1.875ZM281.922 1.875H287.852L288.93 26.2969V36H281.922V1.875ZM311.852 1.875H317.805V36H310.773V26.2969L311.852 1.875ZM335.219 36.4688C333.25 36.4688 331.484 36.1562 329.922 35.5312C328.359 34.8906 327.031 34.0078 325.938 32.8828C324.859 31.7578 324.031 30.4531 323.453 28.9688C322.875 27.4688 322.586 25.875 322.586 24.1875V23.25C322.586 21.3281 322.859 19.5703 323.406 17.9766C323.953 16.3828 324.734 15 325.75 13.8281C326.781 12.6562 328.031 11.7578 329.5 11.1328C330.969 10.4922 332.625 10.1719 334.469 10.1719C336.266 10.1719 337.859 10.4688 339.25 11.0625C340.641 11.6562 341.805 12.5 342.742 13.5938C343.695 14.6875 344.414 16 344.898 17.5312C345.383 19.0469 345.625 20.7344 345.625 22.5938V25.4062H325.469V20.9062H338.992V20.3906C338.992 19.4531 338.82 18.6172 338.477 17.8828C338.148 17.1328 337.648 16.5391 336.977 16.1016C336.305 15.6641 335.445 15.4453 334.398 15.4453C333.508 15.4453 332.742 15.6406 332.102 16.0312C331.461 16.4219 330.938 16.9688 330.531 17.6719C330.141 18.375 329.844 19.2031 329.641 20.1562C329.453 21.0938 329.359 22.125 329.359 23.25V24.1875C329.359 25.2031 329.5 26.1406 329.781 27C330.078 27.8594 330.492 28.6016 331.023 29.2266C331.57 29.8516 332.227 30.3359 332.992 30.6797C333.773 31.0234 334.656 31.1953 335.641 31.1953C336.859 31.1953 337.992 30.9609 339.039 30.4922C340.102 30.0078 341.016 29.2812 341.781 28.3125L345.062 31.875C344.531 32.6406 343.805 33.375 342.883 34.0781C341.977 34.7812 340.883 35.3594 339.602 35.8125C338.32 36.25 336.859 36.4688 335.219 36.4688ZM364.445 30.4688V0H371.242V36H365.125L364.445 30.4688ZM348.414 23.625V23.1328C348.414 21.1953 348.633 19.4375 349.07 17.8594C349.508 16.2656 350.148 14.8984 350.992 13.7578C351.836 12.6172 352.875 11.7344 354.109 11.1094C355.344 10.4844 356.75 10.1719 358.328 10.1719C359.812 10.1719 361.109 10.4844 362.219 11.1094C363.344 11.7344 364.297 12.625 365.078 13.7812C365.875 14.9219 366.516 16.2734 367 17.8359C367.484 19.3828 367.836 21.0781 368.055 22.9219V24C367.836 25.7656 367.484 27.4062 367 28.9219C366.516 30.4375 365.875 31.7656 365.078 32.9062C364.297 34.0312 363.344 34.9062 362.219 35.5312C361.094 36.1562 359.781 36.4688 358.281 36.4688C356.703 36.4688 355.297 36.1484 354.062 35.5078C352.844 34.8672 351.812 33.9688 350.969 32.8125C350.141 31.6562 349.508 30.2969 349.07 28.7344C348.633 27.1719 348.414 25.4688 348.414 23.625ZM355.164 23.1328V23.625C355.164 24.6719 355.242 25.6484 355.398 26.5547C355.57 27.4609 355.844 28.2656 356.219 28.9688C356.609 29.6562 357.109 30.1953 357.719 30.5859C358.344 30.9609 359.102 31.1484 359.992 31.1484C361.148 31.1484 362.102 30.8906 362.852 30.375C363.602 29.8438 364.172 29.1172 364.562 28.1953C364.969 27.2734 365.203 26.2109 365.266 25.0078V21.9375C365.219 20.9531 365.078 20.0703 364.844 19.2891C364.625 18.4922 364.297 17.8125 363.859 17.25C363.438 16.6875 362.906 16.25 362.266 15.9375C361.641 15.625 360.898 15.4688 360.039 15.4688C359.164 15.4688 358.414 15.6719 357.789 16.0781C357.164 16.4688 356.656 17.0078 356.266 17.6953C355.891 18.3828 355.609 19.1953 355.422 20.1328C355.25 21.0547 355.164 22.0547 355.164 23.1328ZM383.641 10.6406V36H376.867V10.6406H383.641ZM376.445 4.03125C376.445 3.04688 376.789 2.23437 377.477 1.59375C378.164 0.953125 379.086 0.632812 380.242 0.632812C381.383 0.632812 382.297 0.953125 382.984 1.59375C383.688 2.23437 384.039 3.04688 384.039 4.03125C384.039 5.01562 383.688 5.82813 382.984 6.46875C382.297 7.10937 381.383 7.42969 380.242 7.42969C379.086 7.42969 378.164 7.10937 377.477 6.46875C376.789 5.82813 376.445 5.01562 376.445 4.03125ZM402.906 30.2812V18.9844C402.906 18.1719 402.773 17.4766 402.508 16.8984C402.242 16.3047 401.828 15.8438 401.266 15.5156C400.719 15.1875 400.008 15.0234 399.133 15.0234C398.383 15.0234 397.734 15.1562 397.188 15.4219C396.641 15.6719 396.219 16.0391 395.922 16.5234C395.625 16.9922 395.477 17.5469 395.477 18.1875H388.727C388.727 17.1094 388.977 16.0859 389.477 15.1172C389.977 14.1484 390.703 13.2969 391.656 12.5625C392.609 11.8125 393.742 11.2266 395.055 10.8047C396.383 10.3828 397.867 10.1719 399.508 10.1719C401.477 10.1719 403.227 10.5 404.758 11.1562C406.289 11.8125 407.492 12.7969 408.367 14.1094C409.258 15.4219 409.703 17.0625 409.703 19.0312V29.8828C409.703 31.2734 409.789 32.4141 409.961 33.3047C410.133 34.1797 410.383 34.9453 410.711 35.6016V36H403.891C403.562 35.3125 403.312 34.4531 403.141 33.4219C402.984 32.375 402.906 31.3281 402.906 30.2812ZM403.797 20.5547L403.844 24.375H400.07C399.18 24.375 398.406 24.4766 397.75 24.6797C397.094 24.8828 396.555 25.1719 396.133 25.5469C395.711 25.9062 395.398 26.3281 395.195 26.8125C395.008 27.2969 394.914 27.8281 394.914 28.4062C394.914 28.9844 395.047 29.5078 395.312 29.9766C395.578 30.4297 395.961 30.7891 396.461 31.0547C396.961 31.3047 397.547 31.4297 398.219 31.4297C399.234 31.4297 400.117 31.2266 400.867 30.8203C401.617 30.4141 402.195 29.9141 402.602 29.3203C403.023 28.7266 403.242 28.1641 403.258 27.6328L405.039 30.4922C404.789 31.1328 404.445 31.7969 404.008 32.4844C403.586 33.1719 403.047 33.8203 402.391 34.4297C401.734 35.0234 400.945 35.5156 400.023 35.9062C399.102 36.2812 398.008 36.4688 396.742 36.4688C395.133 36.4688 393.672 36.1484 392.359 35.5078C391.062 34.8516 390.031 33.9531 389.266 32.8125C388.516 31.6562 388.141 30.3438 388.141 28.875C388.141 27.5469 388.391 26.3672 388.891 25.3359C389.391 24.3047 390.125 23.4375 391.094 22.7344C392.078 22.0156 393.305 21.4766 394.773 21.1172C396.242 20.7422 397.945 20.5547 399.883 20.5547H403.797ZM422.031 0V36H415.258V0H422.031ZM453.859 7.71094L444.578 36H437.102L449.781 1.875H454.539L453.859 7.71094ZM461.57 36L452.266 7.71094L451.516 1.875H456.32L469.07 36H461.57ZM461.148 23.2969V28.8047H443.125V23.2969H461.148ZM485.523 28.9922C485.523 28.5078 485.383 28.0703 485.102 27.6797C484.82 27.2891 484.297 26.9297 483.531 26.6016C482.781 26.2578 481.695 25.9453 480.273 25.6641C478.992 25.3828 477.797 25.0312 476.688 24.6094C475.594 24.1719 474.641 23.6484 473.828 23.0391C473.031 22.4297 472.406 21.7109 471.953 20.8828C471.5 20.0391 471.273 19.0781 471.273 18C471.273 16.9375 471.5 15.9375 471.953 15C472.422 14.0625 473.086 13.2344 473.945 12.5156C474.82 11.7812 475.883 11.2109 477.133 10.8047C478.398 10.3828 479.82 10.1719 481.398 10.1719C483.602 10.1719 485.492 10.5234 487.07 11.2266C488.664 11.9297 489.883 12.8984 490.727 14.1328C491.586 15.3516 492.016 16.7422 492.016 18.3047H485.266C485.266 17.6484 485.125 17.0625 484.844 16.5469C484.578 16.0156 484.156 15.6016 483.578 15.3047C483.016 14.9922 482.281 14.8359 481.375 14.8359C480.625 14.8359 479.977 14.9688 479.43 15.2344C478.883 15.4844 478.461 15.8281 478.164 16.2656C477.883 16.6875 477.742 17.1562 477.742 17.6719C477.742 18.0625 477.82 18.4141 477.977 18.7266C478.148 19.0234 478.422 19.2969 478.797 19.5469C479.172 19.7969 479.656 20.0312 480.25 20.25C480.859 20.4531 481.609 20.6406 482.5 20.8125C484.328 21.1875 485.961 21.6797 487.398 22.2891C488.836 22.8828 489.977 23.6953 490.82 24.7266C491.664 25.7422 492.086 27.0781 492.086 28.7344C492.086 29.8594 491.836 30.8906 491.336 31.8281C490.836 32.7656 490.117 33.5859 489.18 34.2891C488.242 34.9766 487.117 35.5156 485.805 35.9062C484.508 36.2812 483.047 36.4688 481.422 36.4688C479.062 36.4688 477.062 36.0469 475.422 35.2031C473.797 34.3594 472.562 33.2891 471.719 31.9922C470.891 30.6797 470.477 29.3359 470.477 27.9609H476.875C476.906 28.8828 477.141 29.625 477.578 30.1875C478.031 30.75 478.602 31.1562 479.289 31.4062C479.992 31.6562 480.75 31.7812 481.562 31.7812C482.438 31.7812 483.164 31.6641 483.742 31.4297C484.32 31.1797 484.758 30.8516 485.055 30.4453C485.367 30.0234 485.523 29.5391 485.523 28.9922ZM510.18 28.9922C510.18 28.5078 510.039 28.0703 509.758 27.6797C509.477 27.2891 508.953 26.9297 508.188 26.6016C507.438 26.2578 506.352 25.9453 504.93 25.6641C503.648 25.3828 502.453 25.0312 501.344 24.6094C500.25 24.1719 499.297 23.6484 498.484 23.0391C497.688 22.4297 497.062 21.7109 496.609 20.8828C496.156 20.0391 495.93 19.0781 495.93 18C495.93 16.9375 496.156 15.9375 496.609 15C497.078 14.0625 497.742 13.2344 498.602 12.5156C499.477 11.7812 500.539 11.2109 501.789 10.8047C503.055 10.3828 504.477 10.1719 506.055 10.1719C508.258 10.1719 510.148 10.5234 511.727 11.2266C513.32 11.9297 514.539 12.8984 515.383 14.1328C516.242 15.3516 516.672 16.7422 516.672 18.3047H509.922C509.922 17.6484 509.781 17.0625 509.5 16.5469C509.234 16.0156 508.812 15.6016 508.234 15.3047C507.672 14.9922 506.938 14.8359 506.031 14.8359C505.281 14.8359 504.633 14.9688 504.086 15.2344C503.539 15.4844 503.117 15.8281 502.82 16.2656C502.539 16.6875 502.398 17.1562 502.398 17.6719C502.398 18.0625 502.477 18.4141 502.633 18.7266C502.805 19.0234 503.078 19.2969 503.453 19.5469C503.828 19.7969 504.312 20.0312 504.906 20.25C505.516 20.4531 506.266 20.6406 507.156 20.8125C508.984 21.1875 510.617 21.6797 512.055 22.2891C513.492 22.8828 514.633 23.6953 515.477 24.7266C516.32 25.7422 516.742 27.0781 516.742 28.7344C516.742 29.8594 516.492 30.8906 515.992 31.8281C515.492 32.7656 514.773 33.5859 513.836 34.2891C512.898 34.9766 511.773 35.5156 510.461 35.9062C509.164 36.2812 507.703 36.4688 506.078 36.4688C503.719 36.4688 501.719 36.0469 500.078 35.2031C498.453 34.3594 497.219 33.2891 496.375 31.9922C495.547 30.6797 495.133 29.3359 495.133 27.9609H501.531C501.562 28.8828 501.797 29.625 502.234 30.1875C502.688 30.75 503.258 31.1562 503.945 31.4062C504.648 31.6562 505.406 31.7812 506.219 31.7812C507.094 31.7812 507.82 31.6641 508.398 31.4297C508.977 31.1797 509.414 30.8516 509.711 30.4453C510.023 30.0234 510.18 29.5391 510.18 28.9922ZM520.047 23.5781V23.0859C520.047 21.2266 520.312 19.5156 520.844 17.9531C521.375 16.375 522.148 15.0078 523.164 13.8516C524.18 12.6953 525.43 11.7969 526.914 11.1562C528.398 10.5 530.102 10.1719 532.023 10.1719C533.945 10.1719 535.656 10.5 537.156 11.1562C538.656 11.7969 539.914 12.6953 540.93 13.8516C541.961 15.0078 542.742 16.375 543.273 17.9531C543.805 19.5156 544.07 21.2266 544.07 23.0859V23.5781C544.07 25.4219 543.805 27.1328 543.273 28.7109C542.742 30.2734 541.961 31.6406 540.93 32.8125C539.914 33.9688 538.664 34.8672 537.18 35.5078C535.695 36.1484 533.992 36.4688 532.07 36.4688C530.148 36.4688 528.438 36.1484 526.938 35.5078C525.453 34.8672 524.195 33.9688 523.164 32.8125C522.148 31.6406 521.375 30.2734 520.844 28.7109C520.312 27.1328 520.047 25.4219 520.047 23.5781ZM526.797 23.0859V23.5781C526.797 24.6406 526.891 25.6328 527.078 26.5547C527.266 27.4766 527.562 28.2891 527.969 28.9922C528.391 29.6797 528.938 30.2188 529.609 30.6094C530.281 31 531.102 31.1953 532.07 31.1953C533.008 31.1953 533.812 31 534.484 30.6094C535.156 30.2188 535.695 29.6797 536.102 28.9922C536.508 28.2891 536.805 27.4766 536.992 26.5547C537.195 25.6328 537.297 24.6406 537.297 23.5781V23.0859C537.297 22.0547 537.195 21.0859 536.992 20.1797C536.805 19.2578 536.5 18.4453 536.078 17.7422C535.672 17.0234 535.133 16.4609 534.461 16.0547C533.789 15.6484 532.977 15.4453 532.023 15.4453C531.07 15.4453 530.258 15.6484 529.586 16.0547C528.93 16.4609 528.391 17.0234 527.969 17.7422C527.562 18.4453 527.266 19.2578 527.078 20.1797C526.891 21.0859 526.797 22.0547 526.797 23.0859ZM558.695 31.1953C559.523 31.1953 560.258 31.0391 560.898 30.7266C561.539 30.3984 562.039 29.9453 562.398 29.3672C562.773 28.7734 562.969 28.0781 562.984 27.2812H569.336C569.32 29.0625 568.844 30.6484 567.906 32.0391C566.969 33.4141 565.711 34.5 564.133 35.2969C562.555 36.0781 560.789 36.4688 558.836 36.4688C556.867 36.4688 555.148 36.1406 553.68 35.4844C552.227 34.8281 551.016 33.9219 550.047 32.7656C549.078 31.5938 548.352 30.2344 547.867 28.6875C547.383 27.125 547.141 25.4531 547.141 23.6719V22.9922C547.141 21.1953 547.383 19.5234 547.867 17.9766C548.352 16.4141 549.078 15.0547 550.047 13.8984C551.016 12.7266 552.227 11.8125 553.68 11.1562C555.133 10.5 556.836 10.1719 558.789 10.1719C560.867 10.1719 562.688 10.5703 564.25 11.3672C565.828 12.1641 567.062 13.3047 567.953 14.7891C568.859 16.2578 569.32 18 569.336 20.0156H562.984C562.969 19.1719 562.789 18.4062 562.445 17.7188C562.117 17.0312 561.633 16.4844 560.992 16.0781C560.367 15.6562 559.594 15.4453 558.672 15.4453C557.688 15.4453 556.883 15.6562 556.258 16.0781C555.633 16.4844 555.148 17.0469 554.805 17.7656C554.461 18.4688 554.219 19.2734 554.078 20.1797C553.953 21.0703 553.891 22.0078 553.891 22.9922V23.6719C553.891 24.6562 553.953 25.6016 554.078 26.5078C554.203 27.4141 554.438 28.2188 554.781 28.9219C555.141 29.625 555.633 30.1797 556.258 30.5859C556.883 30.9922 557.695 31.1953 558.695 31.1953ZM580.375 10.6406V36H573.602V10.6406H580.375ZM573.18 4.03125C573.18 3.04688 573.523 2.23437 574.211 1.59375C574.898 0.953125 575.82 0.632812 576.977 0.632812C578.117 0.632812 579.031 0.953125 579.719 1.59375C580.422 2.23437 580.773 3.04688 580.773 4.03125C580.773 5.01562 580.422 5.82813 579.719 6.46875C579.031 7.10937 578.117 7.42969 576.977 7.42969C575.82 7.42969 574.898 7.10937 574.211 6.46875C573.523 5.82813 573.18 5.01562 573.18 4.03125ZM599.641 30.2812V18.9844C599.641 18.1719 599.508 17.4766 599.242 16.8984C598.977 16.3047 598.562 15.8438 598 15.5156C597.453 15.1875 596.742 15.0234 595.867 15.0234C595.117 15.0234 594.469 15.1562 593.922 15.4219C593.375 15.6719 592.953 16.0391 592.656 16.5234C592.359 16.9922 592.211 17.5469 592.211 18.1875H585.461C585.461 17.1094 585.711 16.0859 586.211 15.1172C586.711 14.1484 587.438 13.2969 588.391 12.5625C589.344 11.8125 590.477 11.2266 591.789 10.8047C593.117 10.3828 594.602 10.1719 596.242 10.1719C598.211 10.1719 599.961 10.5 601.492 11.1562C603.023 11.8125 604.227 12.7969 605.102 14.1094C605.992 15.4219 606.438 17.0625 606.438 19.0312V29.8828C606.438 31.2734 606.523 32.4141 606.695 33.3047C606.867 34.1797 607.117 34.9453 607.445 35.6016V36H600.625C600.297 35.3125 600.047 34.4531 599.875 33.4219C599.719 32.375 599.641 31.3281 599.641 30.2812ZM600.531 20.5547L600.578 24.375H596.805C595.914 24.375 595.141 24.4766 594.484 24.6797C593.828 24.8828 593.289 25.1719 592.867 25.5469C592.445 25.9062 592.133 26.3281 591.93 26.8125C591.742 27.2969 591.648 27.8281 591.648 28.4062C591.648 28.9844 591.781 29.5078 592.047 29.9766C592.312 30.4297 592.695 30.7891 593.195 31.0547C593.695 31.3047 594.281 31.4297 594.953 31.4297C595.969 31.4297 596.852 31.2266 597.602 30.8203C598.352 30.4141 598.93 29.9141 599.336 29.3203C599.758 28.7266 599.977 28.1641 599.992 27.6328L601.773 30.4922C601.523 31.1328 601.18 31.7969 600.742 32.4844C600.32 33.1719 599.781 33.8203 599.125 34.4297C598.469 35.0234 597.68 35.5156 596.758 35.9062C595.836 36.2812 594.742 36.4688 593.477 36.4688C591.867 36.4688 590.406 36.1484 589.094 35.5078C587.797 34.8516 586.766 33.9531 586 32.8125C585.25 31.6562 584.875 30.3438 584.875 28.875C584.875 27.5469 585.125 26.3672 585.625 25.3359C586.125 24.3047 586.859 23.4375 587.828 22.7344C588.812 22.0156 590.039 21.4766 591.508 21.1172C592.977 20.7422 594.68 20.5547 596.617 20.5547H600.531ZM624.062 10.6406V15.4219H609.297V10.6406H624.062ZM612.953 4.38281H619.703V28.3594C619.703 29.0938 619.797 29.6562 619.984 30.0469C620.188 30.4375 620.484 30.7109 620.875 30.8672C621.266 31.0078 621.758 31.0781 622.352 31.0781C622.773 31.0781 623.148 31.0625 623.477 31.0312C623.82 30.9844 624.109 30.9375 624.344 30.8906L624.367 35.8594C623.789 36.0469 623.164 36.1953 622.492 36.3047C621.82 36.4141 621.078 36.4688 620.266 36.4688C618.781 36.4688 617.484 36.2266 616.375 35.7422C615.281 35.2422 614.438 34.4453 613.844 33.3516C613.25 32.2578 612.953 30.8203 612.953 29.0391V4.38281ZM635.031 10.6406V36H628.258V10.6406H635.031ZM627.836 4.03125C627.836 3.04688 628.18 2.23437 628.867 1.59375C629.555 0.953125 630.477 0.632812 631.633 0.632812C632.773 0.632812 633.688 0.953125 634.375 1.59375C635.078 2.23437 635.43 3.04688 635.43 4.03125C635.43 5.01562 635.078 5.82813 634.375 6.46875C633.688 7.10937 632.773 7.42969 631.633 7.42969C630.477 7.42969 629.555 7.10937 628.867 6.46875C628.18 5.82813 627.836 5.01562 627.836 4.03125ZM639.531 23.5781V23.0859C639.531 21.2266 639.797 19.5156 640.328 17.9531C640.859 16.375 641.633 15.0078 642.648 13.8516C643.664 12.6953 644.914 11.7969 646.398 11.1562C647.883 10.5 649.586 10.1719 651.508 10.1719C653.43 10.1719 655.141 10.5 656.641 11.1562C658.141 11.7969 659.398 12.6953 660.414 13.8516C661.445 15.0078 662.227 16.375 662.758 17.9531C663.289 19.5156 663.555 21.2266 663.555 23.0859V23.5781C663.555 25.4219 663.289 27.1328 662.758 28.7109C662.227 30.2734 661.445 31.6406 660.414 32.8125C659.398 33.9688 658.148 34.8672 656.664 35.5078C655.18 36.1484 653.477 36.4688 651.555 36.4688C649.633 36.4688 647.922 36.1484 646.422 35.5078C644.938 34.8672 643.68 33.9688 642.648 32.8125C641.633 31.6406 640.859 30.2734 640.328 28.7109C639.797 27.1328 639.531 25.4219 639.531 23.5781ZM646.281 23.0859V23.5781C646.281 24.6406 646.375 25.6328 646.562 26.5547C646.75 27.4766 647.047 28.2891 647.453 28.9922C647.875 29.6797 648.422 30.2188 649.094 30.6094C649.766 31 650.586 31.1953 651.555 31.1953C652.492 31.1953 653.297 31 653.969 30.6094C654.641 30.2188 655.18 29.6797 655.586 28.9922C655.992 28.2891 656.289 27.4766 656.477 26.5547C656.68 25.6328 656.781 24.6406 656.781 23.5781V23.0859C656.781 22.0547 656.68 21.0859 656.477 20.1797C656.289 19.2578 655.984 18.4453 655.562 17.7422C655.156 17.0234 654.617 16.4609 653.945 16.0547C653.273 15.6484 652.461 15.4453 651.508 15.4453C650.555 15.4453 649.742 15.6484 649.07 16.0547C648.414 16.4609 647.875 17.0234 647.453 17.7422C647.047 18.4453 646.75 19.2578 646.562 20.1797C646.375 21.0859 646.281 22.0547 646.281 23.0859ZM674.312 16.0547V36H667.562V10.6406H673.891L674.312 16.0547ZM673.328 22.4297H671.5C671.5 20.5547 671.742 18.8672 672.227 17.3672C672.711 15.8516 673.391 14.5625 674.266 13.5C675.141 12.4219 676.18 11.6016 677.383 11.0391C678.602 10.4609 679.961 10.1719 681.461 10.1719C682.648 10.1719 683.734 10.3438 684.719 10.6875C685.703 11.0312 686.547 11.5781 687.25 12.3281C687.969 13.0781 688.516 14.0703 688.891 15.3047C689.281 16.5391 689.477 18.0469 689.477 19.8281V36H682.68V19.8047C682.68 18.6797 682.523 17.8047 682.211 17.1797C681.898 16.5547 681.438 16.1172 680.828 15.8672C680.234 15.6016 679.5 15.4688 678.625 15.4688C677.719 15.4688 676.93 15.6484 676.258 16.0078C675.602 16.3672 675.055 16.8672 674.617 17.5078C674.195 18.1328 673.875 18.8672 673.656 19.7109C673.438 20.5547 673.328 21.4609 673.328 22.4297ZM252.977 79.5781V79.0859C252.977 77.2266 253.242 75.5156 253.773 73.9531C254.305 72.375 255.078 71.0078 256.094 69.8516C257.109 68.6953 258.359 67.7969 259.844 67.1562C261.328 66.5 263.031 66.1719 264.953 66.1719C266.875 66.1719 268.586 66.5 270.086 67.1562C271.586 67.7969 272.844 68.6953 273.859 69.8516C274.891 71.0078 275.672 72.375 276.203 73.9531C276.734 75.5156 277 77.2266 277 79.0859V79.5781C277 81.4219 276.734 83.1328 276.203 84.7109C275.672 86.2734 274.891 87.6406 273.859 88.8125C272.844 89.9688 271.594 90.8672 270.109 91.5078C268.625 92.1484 266.922 92.4688 265 92.4688C263.078 92.4688 261.367 92.1484 259.867 91.5078C258.383 90.8672 257.125 89.9688 256.094 88.8125C255.078 87.6406 254.305 86.2734 253.773 84.7109C253.242 83.1328 252.977 81.4219 252.977 79.5781ZM259.727 79.0859V79.5781C259.727 80.6406 259.82 81.6328 260.008 82.5547C260.195 83.4766 260.492 84.2891 260.898 84.9922C261.32 85.6797 261.867 86.2188 262.539 86.6094C263.211 87 264.031 87.1953 265 87.1953C265.938 87.1953 266.742 87 267.414 86.6094C268.086 86.2188 268.625 85.6797 269.031 84.9922C269.438 84.2891 269.734 83.4766 269.922 82.5547C270.125 81.6328 270.227 80.6406 270.227 79.5781V79.0859C270.227 78.0547 270.125 77.0859 269.922 76.1797C269.734 75.2578 269.43 74.4453 269.008 73.7422C268.602 73.0234 268.062 72.4609 267.391 72.0547C266.719 71.6484 265.906 71.4453 264.953 71.4453C264 71.4453 263.188 71.6484 262.516 72.0547C261.859 72.4609 261.32 73.0234 260.898 73.7422C260.492 74.4453 260.195 75.2578 260.008 76.1797C259.82 77.0859 259.727 78.0547 259.727 79.0859ZM289.75 92H282.953V64.3906C282.953 62.4688 283.328 60.8516 284.078 59.5391C284.844 58.2109 285.914 57.2109 287.289 56.5391C288.68 55.8516 290.328 55.5078 292.234 55.5078C292.859 55.5078 293.461 55.5547 294.039 55.6484C294.617 55.7266 295.18 55.8281 295.727 55.9531L295.656 61.0391C295.359 60.9609 295.047 60.9062 294.719 60.875C294.391 60.8438 294.008 60.8281 293.57 60.8281C292.758 60.8281 292.062 60.9688 291.484 61.25C290.922 61.5156 290.492 61.9141 290.195 62.4453C289.898 62.9766 289.75 63.625 289.75 64.3906V92ZM294.812 66.6406V71.4219H279.18V66.6406H294.812ZM332.664 86.5156V92H315.484V86.5156H332.664ZM317.758 57.875V92H310.727V57.875H317.758ZM349.961 86.2812V74.9844C349.961 74.1719 349.828 73.4766 349.562 72.8984C349.297 72.3047 348.883 71.8438 348.32 71.5156C347.773 71.1875 347.062 71.0234 346.188 71.0234C345.438 71.0234 344.789 71.1562 344.242 71.4219C343.695 71.6719 343.273 72.0391 342.977 72.5234C342.68 72.9922 342.531 73.5469 342.531 74.1875H335.781C335.781 73.1094 336.031 72.0859 336.531 71.1172C337.031 70.1484 337.758 69.2969 338.711 68.5625C339.664 67.8125 340.797 67.2266 342.109 66.8047C343.438 66.3828 344.922 66.1719 346.562 66.1719C348.531 66.1719 350.281 66.5 351.812 67.1562C353.344 67.8125 354.547 68.7969 355.422 70.1094C356.312 71.4219 356.758 73.0625 356.758 75.0312V85.8828C356.758 87.2734 356.844 88.4141 357.016 89.3047C357.188 90.1797 357.438 90.9453 357.766 91.6016V92H350.945C350.617 91.3125 350.367 90.4531 350.195 89.4219C350.039 88.375 349.961 87.3281 349.961 86.2812ZM350.852 76.5547L350.898 80.375H347.125C346.234 80.375 345.461 80.4766 344.805 80.6797C344.148 80.8828 343.609 81.1719 343.188 81.5469C342.766 81.9062 342.453 82.3281 342.25 82.8125C342.062 83.2969 341.969 83.8281 341.969 84.4062C341.969 84.9844 342.102 85.5078 342.367 85.9766C342.633 86.4297 343.016 86.7891 343.516 87.0547C344.016 87.3047 344.602 87.4297 345.273 87.4297C346.289 87.4297 347.172 87.2266 347.922 86.8203C348.672 86.4141 349.25 85.9141 349.656 85.3203C350.078 84.7266 350.297 84.1641 350.312 83.6328L352.094 86.4922C351.844 87.1328 351.5 87.7969 351.062 88.4844C350.641 89.1719 350.102 89.8203 349.445 90.4297C348.789 91.0234 348 91.5156 347.078 91.9062C346.156 92.2812 345.062 92.4688 343.797 92.4688C342.188 92.4688 340.727 92.1484 339.414 91.5078C338.117 90.8516 337.086 89.9531 336.32 88.8125C335.57 87.6562 335.195 86.3438 335.195 84.875C335.195 83.5469 335.445 82.3672 335.945 81.3359C336.445 80.3047 337.18 79.4375 338.148 78.7344C339.133 78.0156 340.359 77.4766 341.828 77.1172C343.297 76.7422 345 76.5547 346.938 76.5547H350.852ZM368.57 72.0547V92H361.82V66.6406H368.148L368.57 72.0547ZM367.586 78.4297H365.758C365.758 76.5547 366 74.8672 366.484 73.3672C366.969 71.8516 367.648 70.5625 368.523 69.5C369.398 68.4219 370.438 67.6016 371.641 67.0391C372.859 66.4609 374.219 66.1719 375.719 66.1719C376.906 66.1719 377.992 66.3438 378.977 66.6875C379.961 67.0312 380.805 67.5781 381.508 68.3281C382.227 69.0781 382.773 70.0703 383.148 71.3047C383.539 72.5391 383.734 74.0469 383.734 75.8281V92H376.938V75.8047C376.938 74.6797 376.781 73.8047 376.469 73.1797C376.156 72.5547 375.695 72.1172 375.086 71.8672C374.492 71.6016 373.758 71.4688 372.883 71.4688C371.977 71.4688 371.188 71.6484 370.516 72.0078C369.859 72.3672 369.312 72.8672 368.875 73.5078C368.453 74.1328 368.133 74.8672 367.914 75.7109C367.695 76.5547 367.586 77.4609 367.586 78.4297ZM395.617 55.9766V92H388.867V55.9766H395.617ZM411.602 66.6406L400.586 79.2031L394.68 85.1797L392.219 80.3047L396.906 74.3516L403.492 66.6406H411.602ZM404.594 92L397.094 80.2812L401.758 76.2031L412.375 92H404.594ZM428.195 86.2812V74.9844C428.195 74.1719 428.062 73.4766 427.797 72.8984C427.531 72.3047 427.117 71.8438 426.555 71.5156C426.008 71.1875 425.297 71.0234 424.422 71.0234C423.672 71.0234 423.023 71.1562 422.477 71.4219C421.93 71.6719 421.508 72.0391 421.211 72.5234C420.914 72.9922 420.766 73.5469 420.766 74.1875H414.016C414.016 73.1094 414.266 72.0859 414.766 71.1172C415.266 70.1484 415.992 69.2969 416.945 68.5625C417.898 67.8125 419.031 67.2266 420.344 66.8047C421.672 66.3828 423.156 66.1719 424.797 66.1719C426.766 66.1719 428.516 66.5 430.047 67.1562C431.578 67.8125 432.781 68.7969 433.656 70.1094C434.547 71.4219 434.992 73.0625 434.992 75.0312V85.8828C434.992 87.2734 435.078 88.4141 435.25 89.3047C435.422 90.1797 435.672 90.9453 436 91.6016V92H429.18C428.852 91.3125 428.602 90.4531 428.43 89.4219C428.273 88.375 428.195 87.3281 428.195 86.2812ZM429.086 76.5547L429.133 80.375H425.359C424.469 80.375 423.695 80.4766 423.039 80.6797C422.383 80.8828 421.844 81.1719 421.422 81.5469C421 81.9062 420.688 82.3281 420.484 82.8125C420.297 83.2969 420.203 83.8281 420.203 84.4062C420.203 84.9844 420.336 85.5078 420.602 85.9766C420.867 86.4297 421.25 86.7891 421.75 87.0547C422.25 87.3047 422.836 87.4297 423.508 87.4297C424.523 87.4297 425.406 87.2266 426.156 86.8203C426.906 86.4141 427.484 85.9141 427.891 85.3203C428.312 84.7266 428.531 84.1641 428.547 83.6328L430.328 86.4922C430.078 87.1328 429.734 87.7969 429.297 88.4844C428.875 89.1719 428.336 89.8203 427.68 90.4297C427.023 91.0234 426.234 91.5156 425.312 91.9062C424.391 92.2812 423.297 92.4688 422.031 92.4688C420.422 92.4688 418.961 92.1484 417.648 91.5078C416.352 90.8516 415.32 89.9531 414.555 88.8125C413.805 87.6562 413.43 86.3438 413.43 84.875C413.43 83.5469 413.68 82.3672 414.18 81.3359C414.68 80.3047 415.414 79.4375 416.383 78.7344C417.367 78.0156 418.594 77.4766 420.062 77.1172C421.531 76.7422 423.234 76.5547 425.172 76.5547H429.086Z" fill="white"></path>
</svg>
