<svg xmlns="http://www.w3.org/2000/svg" width="30" height="30" viewBox="0 0 30 30" fill="none"><path d="M3.36323 0.650391C3.05269 0.738281 2.61909 1.07227 2.44331 1.35352C2.3437 1.51758 2.25581 1.76953 2.22066 1.99805C2.1855 2.23828 2.16792 5.74805 2.17964 11.6895C2.19722 20.3848 2.20308 21.0234 2.29683 21.2285C2.46089 21.5918 2.72456 21.8789 3.05855 22.0664L3.36909 22.2363L7.4062 22.2539L11.4433 22.2715L11.8242 22.6289C12.7031 23.4492 13.8691 24.0176 15.123 24.2344C15.8437 24.3574 17.121 24.3223 17.7539 24.1523C18.7265 23.8945 19.7812 23.3672 20.3789 22.8457L20.5839 22.6641L21.7031 23.7832L22.8222 24.9023L22.4238 25.3008C22.1191 25.6113 22.0312 25.7344 22.0312 25.8691C22.0312 26.0215 22.2421 26.2559 23.5722 27.5801C25.3242 29.3262 25.4003 29.3848 26.1328 29.3848C26.496 29.3848 26.625 29.3555 26.871 29.2266C27.457 28.916 27.7675 28.4062 27.7734 27.7441C27.7734 27.0234 27.6855 26.9062 25.9394 25.1543C24.7558 23.9707 24.3691 23.6133 24.2578 23.6133C24.1582 23.6133 23.9941 23.7363 23.7187 24.0059L23.3203 24.4043L22.2128 23.291L21.0996 22.1777L21.4746 21.6855C23.5429 18.9551 23.1093 14.9883 20.496 12.7793L20.039 12.3926V8.81836V5.24414L17.707 2.91211L15.3808 0.585938L9.46284 0.591797C6.10542 0.591797 3.46284 0.621094 3.36323 0.650391ZM14.8945 2.88281L14.9121 4.48242L15.0761 4.81641C15.2519 5.17383 15.4511 5.37305 15.8437 5.58398C16.0722 5.70703 16.166 5.71289 17.7128 5.73047L19.3359 5.74805V8.85352C19.3359 10.5645 19.3183 11.9531 19.2949 11.9414C17.9589 11.2734 16.5175 11.0449 15.1113 11.2852C12.58 11.7188 10.5351 13.5938 9.85542 16.1016C9.7148 16.6172 9.70308 16.7695 9.70308 17.7539C9.70308 18.7441 9.7148 18.8848 9.86128 19.4121C10.0078 19.9629 10.4472 20.959 10.7226 21.375L10.8515 21.5625H7.25386C3.87886 21.5625 3.65034 21.5508 3.42183 21.4512C3.27534 21.3809 3.12886 21.2578 3.04097 21.1172L2.90034 20.8887V11.4258V1.96289L3.03511 1.74023C3.11128 1.61719 3.26948 1.4707 3.38667 1.40625C3.59761 1.30078 3.78511 1.29492 9.24019 1.28906H14.871L14.8945 2.88281ZM17.6015 5.02734C16.4707 5.03906 16.371 5.0332 16.1367 4.91602C15.9843 4.8457 15.8261 4.71094 15.75 4.58203C15.621 4.37695 15.6152 4.30078 15.5976 3.07617L15.58 1.78711L17.1972 3.39844L18.8085 5.00977L17.6015 5.02734ZM17.748 12.0938C19.7929 12.6621 21.3515 14.2324 21.9023 16.2832C22.0312 16.7695 22.0488 16.9746 22.0546 17.7539C22.0605 18.5742 22.0429 18.7207 21.8964 19.248C21.3281 21.3047 19.8632 22.7871 17.7832 23.4141C17.3027 23.5605 17.1679 23.5781 16.2597 23.5781C15.3925 23.584 15.1992 23.5664 14.7656 23.4492C13.7929 23.1797 12.9316 22.6992 12.1992 22.0078C11.6191 21.457 11.2851 21 10.9511 20.3027C10.5 19.3594 10.4003 18.9023 10.4003 17.7539C10.4003 16.9277 10.4238 16.7109 10.5351 16.2891C11.039 14.4375 12.4042 12.9316 14.1796 12.2695C14.9589 11.9766 15.4804 11.8945 16.4062 11.9238C17.0214 11.9414 17.3203 11.9766 17.748 12.0938ZM25.6171 25.8223C26.3496 26.5605 26.9765 27.2344 27.0058 27.3223C27.2402 27.9375 26.8769 28.6113 26.2675 28.6934C25.7871 28.7578 25.6699 28.6699 24.2109 27.2227L22.8515 25.875L23.5371 25.1836C23.9179 24.8027 24.2402 24.4922 24.2578 24.4922C24.2753 24.4922 24.8906 25.0898 25.6171 25.8223Z" fill="#F17300"></path><path d="M4.4531 5.39062C4.30662 5.53711 4.30076 5.75391 4.44139 5.87695C4.54099 5.96484 4.82224 5.97656 7.25389 5.97656H9.95506L10.0429 5.84766C10.1777 5.66016 10.1601 5.53125 9.98435 5.39648C9.83201 5.27344 9.76756 5.27344 7.20115 5.27344C4.64646 5.27344 4.56443 5.2793 4.4531 5.39062Z" fill="#F17300"></path><path d="M4.43547 8.48438C4.30071 8.63086 4.31243 8.82422 4.45305 8.96484C4.57024 9.08203 4.64641 9.08203 11.1327 9.08203C17.6191 9.08203 17.6952 9.08203 17.8124 8.96484C17.9531 8.82422 17.9589 8.68359 17.8359 8.50781L17.748 8.37891H11.1386C4.81047 8.37891 4.52336 8.38477 4.43547 8.48438Z" fill="#F17300"></path><path d="M4.4531 11.543C4.30662 11.6895 4.30076 11.9062 4.44139 12.0293C4.54099 12.1172 4.86326 12.1289 7.83982 12.1289H11.1328L11.2265 11.9824C11.3496 11.7949 11.2969 11.584 11.1035 11.4961C10.9922 11.4434 10.0722 11.4258 7.76365 11.4258C4.64646 11.4258 4.57029 11.4258 4.4531 11.543Z" fill="#F17300"></path><path d="M4.43547 14.6367C4.30071 14.7832 4.31243 14.9766 4.45305 15.1172C4.56438 15.2285 4.64641 15.2344 6.7675 15.2344C8.8886 15.2344 8.97063 15.2285 9.08196 15.1172C9.22258 14.9766 9.22844 14.8359 9.10539 14.6602L9.0175 14.5312H6.77336C4.67571 14.5312 4.52336 14.5371 4.43547 14.6367Z" fill="#F17300"></path><path d="M4.4531 17.6953C4.30662 17.8418 4.30076 18.0586 4.44139 18.1816C4.54099 18.2695 4.78709 18.2812 6.75584 18.2812H8.96482L9.05857 18.1348C9.18162 17.9473 9.12888 17.7363 8.93553 17.6484C8.83006 17.5957 8.16209 17.5781 6.67967 17.5781C4.64646 17.5781 4.56443 17.584 4.4531 17.6953Z" fill="#F17300"></path><path d="M11.9941 14.6367C11.8535 14.7891 11.8711 15.0352 12.0234 15.1406C12.1406 15.2227 12.6328 15.2344 16.1894 15.2344H20.2207L20.3672 15.0879C20.5254 14.9297 20.5195 14.7422 20.3437 14.6016C20.2734 14.5488 19.3476 14.5312 16.1718 14.5312C12.2929 14.5312 12.082 14.5371 11.9941 14.6367Z" fill="#F17300"></path><path d="M11.9941 17.2734C11.8535 17.4258 11.8711 17.6719 12.0234 17.7773C12.1406 17.8594 12.6328 17.8711 16.1894 17.8711H20.2207L20.3672 17.7246C20.5254 17.5664 20.5195 17.3789 20.3437 17.2383C20.2734 17.1855 19.3476 17.168 16.1718 17.168C12.2929 17.168 12.082 17.1738 11.9941 17.2734Z" fill="#F17300"></path><path d="M11.9941 19.9102C11.8535 20.0625 11.8711 20.3086 12.0234 20.4141C12.1406 20.4961 12.6328 20.5078 16.1894 20.5078H20.2207L20.3672 20.3613C20.5254 20.2031 20.5195 20.0156 20.3437 19.875C20.2734 19.8223 19.3476 19.8047 16.1718 19.8047C12.2929 19.8047 12.082 19.8105 11.9941 19.9102Z" fill="#F17300"></path></svg>