<svg xmlns="http://www.w3.org/2000/svg" width="7" height="7" viewBox="0 0 7 7" fill="none"><g clip-path="url(#clip0_16_643)"><path d="M3.49062 3.9622C3.75113 3.9622 3.96232 3.75101 3.96232 3.4905C3.96232 3.22999 3.75113 3.0188 3.49062 3.0188C3.23011 3.0188 3.01892 3.22999 3.01892 3.4905C3.01892 3.75101 3.23011 3.9622 3.49062 3.9622Z" fill="#009BCB"></path><path d="M3.6604 5.65453V6.98122C4.52661 6.94009 5.34368 6.59864 6.06606 5.8613C6.63399 5.25341 6.92504 4.52458 6.98682 3.6416H5.66983C5.60114 4.2049 5.42002 4.65264 5.07549 4.99762C4.73816 5.36241 4.29527 5.5647 3.6604 5.65453Z" fill="url(#paint0_linear_16_643)"></path><path d="M5.6544 3.32642H6.9811C6.93997 2.46021 6.59852 1.64314 5.86118 0.920753C5.25329 0.352827 4.52446 0.0617691 3.64148 0V1.31698C4.20478 1.38569 4.65252 1.56679 4.9975 1.91132C5.36229 2.24864 5.56457 2.69155 5.6544 3.32642Z" fill="url(#paint1_linear_16_643)"></path><path d="M1.3267 3.6604H0C0.0411294 4.52661 0.382577 5.34368 1.11992 6.06606C1.72781 6.63399 2.45664 6.92504 3.33962 6.98682V5.66983C2.77632 5.60114 2.32858 5.42002 1.9836 5.07549C1.61881 4.73816 1.41652 4.29527 1.3267 3.6604Z" fill="url(#paint2_linear_16_643)"></path><path d="M3.32641 1.3267V0C2.46021 0.0411294 1.64314 0.382577 0.920753 1.11992C0.352827 1.72781 0.061769 2.45664 0 3.33962H1.31698C1.38569 2.77632 1.56679 2.32858 1.91132 1.9836C2.24866 1.61881 2.69155 1.41652 3.32641 1.3267Z" fill="url(#paint3_linear_16_643)"></path><path d="M3.64148 4.99162V5.28311C4.13927 5.19313 4.47839 5.03741 4.72639 4.77053C5.04127 4.48728 5.20633 4.12647 5.26693 3.6416H4.9811C4.92001 4.04709 4.77899 4.35319 4.5252 4.59443C4.32293 4.79328 4.04706 4.90838 3.64148 4.99162Z" fill="#141D24"></path><path d="M3.64148 4.6133V4.33028C3.82208 4.29828 3.91754 4.25192 4.07544 4.1133C4.21995 3.97217 4.26995 3.86562 4.32072 3.6416H4.61318C4.56876 3.92217 4.41884 4.13217 4.35846 4.20764C4.28299 4.30198 3.99855 4.5727 3.64148 4.6133Z" fill="#141D24"></path><path d="M4.9915 3.32345H5.28299C5.19301 2.82564 5.03729 2.48652 4.7704 2.23854C4.48716 1.92366 4.12635 1.7586 3.64148 1.698V1.98383C4.04697 2.04492 4.35306 2.18594 4.59431 2.43973C4.79316 2.642 4.90825 2.91785 4.9915 3.32345Z" fill="#141D24"></path><path d="M4.61318 3.33693H4.33016C4.29816 3.15631 4.2518 3.06086 4.11318 2.90297C3.97205 2.75846 3.8655 2.70846 3.64148 2.65769V2.36523C3.92205 2.40965 4.13205 2.55957 4.20752 2.61995C4.30186 2.69542 4.57257 2.97986 4.61318 3.33693Z" fill="#141D24"></path><path d="M1.98961 3.6604H1.69812C1.7881 4.15819 1.94382 4.49731 2.21071 4.74531C2.49395 5.06019 2.85476 5.22525 3.33963 5.28585V5.00002C2.93414 4.93893 2.62804 4.79791 2.3868 4.54412C2.18795 4.34185 2.07286 4.06599 1.98961 3.6604Z" fill="url(#paint4_linear_16_643)"></path><path d="M3.34249 1.97069V1.6792C2.84468 1.76918 2.50558 1.9249 2.25758 2.19178C1.9427 2.47503 1.77764 2.83584 1.71704 3.32071H2.00287C2.06396 2.91522 2.20498 2.60912 2.45877 2.36788C2.66104 2.16903 2.93689 2.05394 3.34249 1.97069Z" fill="#009BCB"></path><path d="M2.35852 3.6416H2.64154C2.67354 3.82221 2.7199 3.91766 2.85852 4.07556C2.99965 4.22007 3.1062 4.27007 3.33022 4.32085V4.6133C3.04965 4.56888 2.83965 4.41896 2.76418 4.35858C2.66984 4.28311 2.39912 3.99868 2.35852 3.6416Z" fill="url(#paint5_linear_16_643)"></path><path d="M3.3351 2.36328V2.6463C3.1545 2.6783 3.05904 2.72466 2.90114 2.86328C2.75665 3.00441 2.70663 3.11098 2.65586 3.33498H2.3634C2.40782 3.05443 2.55774 2.84441 2.61812 2.76894C2.69359 2.6746 2.97803 2.4039 3.3351 2.36328Z" fill="#009BCB"></path></g><defs><linearGradient id="paint0_linear_16_643" x1="3.6604" y1="6.98122" x2="6.98115" y2="3.6416" gradientUnits="userSpaceOnUse"><stop></stop><stop offset="1" stop-color="#141D24"></stop></linearGradient><linearGradient id="paint1_linear_16_643" x1="6.34514" y1="3.30166" x2="3.63025" y2="0.00819701" gradientUnits="userSpaceOnUse"><stop stop-color="#141D24"></stop><stop offset="1" stop-color="#355370"></stop></linearGradient><linearGradient id="paint2_linear_16_643" x1="1.66981" y1="3.6604" x2="1.66981" y2="6.98682" gradientUnits="userSpaceOnUse"><stop stop-color="#009BCB"></stop><stop offset="1" stop-color="#004D65"></stop></linearGradient><linearGradient id="paint3_linear_16_643" x1="3.29047" y1="-0.0193715" x2="0.02277" y2="3.34321" gradientUnits="userSpaceOnUse"><stop stop-color="#06D6FA"></stop><stop offset="1" stop-color="#009BCB"></stop></linearGradient><linearGradient id="paint4_linear_16_643" x1="2.51887" y1="3.6604" x2="2.51331" y2="5.32153" gradientUnits="userSpaceOnUse"><stop stop-color="#009BCB"></stop><stop offset="1" stop-color="#004D65"></stop></linearGradient><linearGradient id="paint5_linear_16_643" x1="2.84437" y1="3.6416" x2="2.84437" y2="4.6133" gradientUnits="userSpaceOnUse"><stop stop-color="#009BCB"></stop><stop offset="1" stop-color="#004D65"></stop></linearGradient><clipPath id="clip0_16_643"><rect width="7" height="7" fill="white"></rect></clipPath></defs></svg>