<?xml version="1.0" encoding="UTF-8"?>
<svg xmlns="http://www.w3.org/2000/svg" width="678" height="93" viewBox="0 0 678 93" fill="none">
  <path d="M7.91406 1.875V36H0.90625V1.875H7.91406ZM20.6875 16.0547V36H13.9375V10.6406H20.2656L20.6875 16.0547ZM19.7031 22.4297H17.875C17.875 20.5547 18.1172 18.8672 18.6016 17.3672C19.0859 15.8516 19.7656 14.5625 20.6406 13.5C21.5156 12.4219 22.5547 11.6016 23.7578 11.0391C24.9766 10.4609 26.3359 10.1719 27.8359 10.1719C29.0234 10.1719 30.1094 10.3438 31.0938 10.6875C32.0781 11.0312 32.9219 11.5781 33.625 12.3281C34.3438 13.0781 34.8906 14.0703 35.2656 15.3047C35.6562 16.5391 35.8516 18.0469 35.8516 19.8281V36H29.0547V19.8047C29.0547 18.6797 28.8984 17.8047 28.5859 17.1797C28.2734 16.5547 27.8125 16.1172 27.2031 15.8672C26.6094 15.6016 25.875 15.4688 25 15.4688C24.0938 15.4688 23.3047 15.6484 22.6328 16.0078C21.9766 16.3672 21.4297 16.8672 20.9922 17.5078C20.5703 18.1328 20.25 18.8672 20.0312 19.7109C19.8125 20.5547 19.7031 21.4609 19.7031 22.4297ZM55.9609 30.4688V0H62.7578V36H56.6406L55.9609 30.4688ZM39.9297 23.625V23.1328C39.9297 21.1953 40.1484 19.4375 40.5859 17.8594C41.0234 16.2656 41.6641 14.8984 42.5078 13.7578C43.3516 12.6172 44.3906 11.7344 45.625 11.1094C46.8594 10.4844 48.2656 10.1719 49.8438 10.1719C51.3281 10.1719 52.625 10.4844 53.7344 11.1094C54.8594 11.7344 55.8125 12.625 56.5938 13.7812C57.3906 14.9219 58.0312 16.2734 58.5156 17.8359C59 19.3828 59.3516 21.0781 59.5703 22.9219V24C59.3516 25.7656 59 27.4062 58.5156 28.9219C58.0312 30.4375 57.3906 31.7656 56.5938 32.9062C55.8125 34.0312 54.8594 34.9062 53.7344 35.5312C52.6094 36.1562 51.2969 36.4688 49.7969 36.4688C48.2188 36.4688 46.8125 36.1484 45.5781 35.5078C44.3594 34.8672 43.3281 33.9688 42.4844 32.8125C41.6562 31.6562 41.0234 30.2969 40.5859 28.7344C40.1484 27.1719 39.9297 25.4688 39.9297 23.625ZM46.6797 23.1328V23.625C46.6797 24.6719 46.7578 25.6484 46.9141 26.5547C47.0859 27.4609 47.3594 28.2656 47.7344 28.9688C48.125 29.6562 48.625 30.1953 49.2344 30.5859C49.8594 30.9609 50.6172 31.1484 51.5078 31.1484C52.6641 31.1484 53.6172 30.8906 54.3672 30.375C55.1172 29.8438 55.6875 29.1172 56.0781 28.1953C56.4844 27.2734 56.7188 26.2109 56.7812 25.0078V21.9375C56.7344 20.9531 56.5938 20.0703 56.3594 19.2891C56.1406 18.4922 55.8125 17.8125 55.375 17.25C54.9531 16.6875 54.4219 16.25 53.7812 15.9375C53.1562 15.625 52.4141 15.4688 51.5547 15.4688C50.6797 15.4688 49.9297 15.6719 49.3047 16.0781C48.6797 16.4688 48.1719 17.0078 47.7812 17.6953C47.4062 18.3828 47.125 19.1953 46.9375 20.1328C46.7656 21.0547 46.6797 22.0547 46.6797 23.1328ZM79.7031 36.4688C77.7344 36.4688 75.9688 36.1562 74.4062 35.5312C72.8438 34.8906 71.5156 34.0078 70.4219 32.8828C69.3438 31.7578 68.5156 30.4531 67.9375 28.9688C67.3594 27.4688 67.0703 25.875 67.0703 24.1875V23.25C67.0703 21.3281 67.3438 19.5703 67.8906 17.9766C68.4375 16.3828 69.2188 15 70.2344 13.8281C71.2656 12.6562 72.5156 11.7578 73.9844 11.1328C75.4531 10.4922 77.1094 10.1719 78.9531 10.1719C80.75 10.1719 82.3438 10.4688 83.7344 11.0625C85.125 11.6562 86.2891 12.5 87.2266 13.5938C88.1797 14.6875 88.8984 16 89.3828 17.5312C89.8672 19.0469 90.1094 20.7344 90.1094 22.5938V25.4062H69.9531V20.9062H83.4766V20.3906C83.4766 19.4531 83.3047 18.6172 82.9609 17.8828C82.6328 17.1328 82.1328 16.5391 81.4609 16.1016C80.7891 15.6641 79.9297 15.4453 78.8828 15.4453C77.9922 15.4453 77.2266 15.6406 76.5859 16.0312C75.9453 16.4219 75.4219 16.9688 75.0156 17.6719C74.625 18.375 74.3281 19.2031 74.125 20.1562C73.9375 21.0938 73.8438 22.125 73.8438 23.25V24.1875C73.8438 25.2031 73.9844 26.1406 74.2656 27C74.5625 27.8594 74.9766 28.6016 75.5078 29.2266C76.0547 29.8516 76.7109 30.3359 77.4766 30.6797C78.2578 31.0234 79.1406 31.1953 80.125 31.1953C81.3438 31.1953 82.4766 30.9609 83.5234 30.4922C84.5859 30.0078 85.5 29.2812 86.2656 28.3125L89.5469 31.875C89.0156 32.6406 88.2891 33.375 87.3672 34.0781C86.4609 34.7812 85.3672 35.3594 84.0859 35.8125C82.8047 36.25 81.3438 36.4688 79.7031 36.4688ZM100.703 15.5156V45.75H93.9531V10.6406H100.211L100.703 15.5156ZM116.758 23.0391V23.5312C116.758 25.375 116.539 27.0859 116.102 28.6641C115.68 30.2422 115.055 31.6172 114.227 32.7891C113.398 33.9453 112.367 34.8516 111.133 35.5078C109.914 36.1484 108.508 36.4688 106.914 36.4688C105.367 36.4688 104.023 36.1562 102.883 35.5312C101.742 34.9062 100.781 34.0312 100 32.9062C99.2344 31.7656 98.6172 30.4453 98.1484 28.9453C97.6797 27.4453 97.3203 25.8359 97.0703 24.1172V22.8281C97.3203 20.9844 97.6797 19.2969 98.1484 17.7656C98.6172 16.2188 99.2344 14.8828 100 13.7578C100.781 12.6172 101.734 11.7344 102.859 11.1094C104 10.4844 105.336 10.1719 106.867 10.1719C108.477 10.1719 109.891 10.4766 111.109 11.0859C112.344 11.6953 113.375 12.5703 114.203 13.7109C115.047 14.8516 115.68 16.2109 116.102 17.7891C116.539 19.3672 116.758 21.1172 116.758 23.0391ZM109.984 23.5312V23.0391C109.984 21.9609 109.891 20.9688 109.703 20.0625C109.531 19.1406 109.25 18.3359 108.859 17.6484C108.484 16.9609 107.984 16.4297 107.359 16.0547C106.75 15.6641 106.008 15.4688 105.133 15.4688C104.211 15.4688 103.422 15.6172 102.766 15.9141C102.125 16.2109 101.602 16.6406 101.195 17.2031C100.789 17.7656 100.484 18.4375 100.281 19.2188C100.078 20 99.9531 20.8828 99.9062 21.8672V25.125C99.9844 26.2812 100.203 27.3203 100.562 28.2422C100.922 29.1484 101.477 29.8672 102.227 30.3984C102.977 30.9297 103.961 31.1953 105.18 31.1953C106.07 31.1953 106.82 31 107.43 30.6094C108.039 30.2031 108.531 29.6484 108.906 28.9453C109.297 28.2422 109.57 27.4297 109.727 26.5078C109.898 25.5859 109.984 24.5938 109.984 23.5312ZM132.625 36.4688C130.656 36.4688 128.891 36.1562 127.328 35.5312C125.766 34.8906 124.438 34.0078 123.344 32.8828C122.266 31.7578 121.438 30.4531 120.859 28.9688C120.281 27.4688 119.992 25.875 119.992 24.1875V23.25C119.992 21.3281 120.266 19.5703 120.812 17.9766C121.359 16.3828 122.141 15 123.156 13.8281C124.188 12.6562 125.438 11.7578 126.906 11.1328C128.375 10.4922 130.031 10.1719 131.875 10.1719C133.672 10.1719 135.266 10.4688 136.656 11.0625C138.047 11.6562 139.211 12.5 140.148 13.5938C141.102 14.6875 141.82 16 142.305 17.5312C142.789 19.0469 143.031 20.7344 143.031 22.5938V25.4062H122.875V20.9062H136.398V20.3906C136.398 19.4531 136.227 18.6172 135.883 17.8828C135.555 17.1328 135.055 16.5391 134.383 16.1016C133.711 15.6641 132.852 15.4453 131.805 15.4453C130.914 15.4453 130.148 15.6406 129.508 16.0312C128.867 16.4219 128.344 16.9688 127.938 17.6719C127.547 18.375 127.25 19.2031 127.047 20.1562C126.859 21.0938 126.766 22.125 126.766 23.25V24.1875C126.766 25.2031 126.906 26.1406 127.188 27C127.484 27.8594 127.898 28.6016 128.43 29.2266C128.977 29.8516 129.633 30.3359 130.398 30.6797C131.18 31.0234 132.062 31.1953 133.047 31.1953C134.266 31.1953 135.398 30.9609 136.445 30.4922C137.508 30.0078 138.422 29.2812 139.188 28.3125L142.469 31.875C141.938 32.6406 141.211 33.375 140.289 34.0781C139.383 34.7812 138.289 35.3594 137.008 35.8125C135.727 36.25 134.266 36.4688 132.625 36.4688ZM153.484 16.0547V36H146.734V10.6406H153.062L153.484 16.0547ZM152.5 22.4297H150.672C150.672 20.5547 150.914 18.8672 151.398 17.3672C151.883 15.8516 152.562 14.5625 153.438 13.5C154.312 12.4219 155.352 11.6016 156.555 11.0391C157.773 10.4609 159.133 10.1719 160.633 10.1719C161.82 10.1719 162.906 10.3438 163.891 10.6875C164.875 11.0312 165.719 11.5781 166.422 12.3281C167.141 13.0781 167.688 14.0703 168.062 15.3047C168.453 16.5391 168.648 18.0469 168.648 19.8281V36H161.852V19.8047C161.852 18.6797 161.695 17.8047 161.383 17.1797C161.07 16.5547 160.609 16.1172 160 15.8672C159.406 15.6016 158.672 15.4688 157.797 15.4688C156.891 15.4688 156.102 15.6484 155.43 16.0078C154.773 16.3672 154.227 16.8672 153.789 17.5078C153.367 18.1328 153.047 18.8672 152.828 19.7109C152.609 20.5547 152.5 21.4609 152.5 22.4297ZM188.758 30.4688V0H195.555V36H189.438L188.758 30.4688ZM172.727 23.625V23.1328C172.727 21.1953 172.945 19.4375 173.383 17.8594C173.82 16.2656 174.461 14.8984 175.305 13.7578C176.148 12.6172 177.188 11.7344 178.422 11.1094C179.656 10.4844 181.062 10.1719 182.641 10.1719C184.125 10.1719 185.422 10.4844 186.531 11.1094C187.656 11.7344 188.609 12.625 189.391 13.7812C190.188 14.9219 190.828 16.2734 191.312 17.8359C191.797 19.3828 192.148 21.0781 192.367 22.9219V24C192.148 25.7656 191.797 27.4062 191.312 28.9219C190.828 30.4375 190.188 31.7656 189.391 32.9062C188.609 34.0312 187.656 34.9062 186.531 35.5312C185.406 36.1562 184.094 36.4688 182.594 36.4688C181.016 36.4688 179.609 36.1484 178.375 35.5078C177.156 34.8672 176.125 33.9688 175.281 32.8125C174.453 31.6562 173.82 30.2969 173.383 28.7344C172.945 27.1719 172.727 25.4688 172.727 23.625ZM179.477 23.1328V23.625C179.477 24.6719 179.555 25.6484 179.711 26.5547C179.883 27.4609 180.156 28.2656 180.531 28.9688C180.922 29.6562 181.422 30.1953 182.031 30.5859C182.656 30.9609 183.414 31.1484 184.305 31.1484C185.461 31.1484 186.414 30.8906 187.164 30.375C187.914 29.8438 188.484 29.1172 188.875 28.1953C189.281 27.2734 189.516 26.2109 189.578 25.0078V21.9375C189.531 20.9531 189.391 20.0703 189.156 19.2891C188.938 18.4922 188.609 17.8125 188.172 17.25C187.75 16.6875 187.219 16.25 186.578 15.9375C185.953 15.625 185.211 15.4688 184.352 15.4688C183.477 15.4688 182.727 15.6719 182.102 16.0781C181.477 16.4688 180.969 17.0078 180.578 17.6953C180.203 18.3828 179.922 19.1953 179.734 20.1328C179.562 21.0547 179.477 22.0547 179.477 23.1328ZM212.5 36.4688C210.531 36.4688 208.766 36.1562 207.203 35.5312C205.641 34.8906 204.312 34.0078 203.219 32.8828C202.141 31.7578 201.312 30.4531 200.734 28.9688C200.156 27.4688 199.867 25.875 199.867 24.1875V23.25C199.867 21.3281 200.141 19.5703 200.688 17.9766C201.234 16.3828 202.016 15 203.031 13.8281C204.062 12.6562 205.312 11.7578 206.781 11.1328C208.25 10.4922 209.906 10.1719 211.75 10.1719C213.547 10.1719 215.141 10.4688 216.531 11.0625C217.922 11.6562 219.086 12.5 220.023 13.5938C220.977 14.6875 221.695 16 222.18 17.5312C222.664 19.0469 222.906 20.7344 222.906 22.5938V25.4062H202.75V20.9062H216.273V20.3906C216.273 19.4531 216.102 18.6172 215.758 17.8828C215.43 17.1328 214.93 16.5391 214.258 16.1016C213.586 15.6641 212.727 15.4453 211.68 15.4453C210.789 15.4453 210.023 15.6406 209.383 16.0312C208.742 16.4219 208.219 16.9688 207.812 17.6719C207.422 18.375 207.125 19.2031 206.922 20.1562C206.734 21.0938 206.641 22.125 206.641 23.25V24.1875C206.641 25.2031 206.781 26.1406 207.062 27C207.359 27.8594 207.773 28.6016 208.305 29.2266C208.852 29.8516 209.508 30.3359 210.273 30.6797C211.055 31.0234 211.938 31.1953 212.922 31.1953C214.141 31.1953 215.273 30.9609 216.32 30.4922C217.383 30.0078 218.297 29.2812 219.062 28.3125L222.344 31.875C221.812 32.6406 221.086 33.375 220.164 34.0781C219.258 34.7812 218.164 35.3594 216.883 35.8125C215.602 36.25 214.141 36.4688 212.5 36.4688ZM233.359 16.0547V36H226.609V10.6406H232.938L233.359 16.0547ZM232.375 22.4297H230.547C230.547 20.5547 230.789 18.8672 231.273 17.3672C231.758 15.8516 232.438 14.5625 233.312 13.5C234.188 12.4219 235.227 11.6016 236.43 11.0391C237.648 10.4609 239.008 10.1719 240.508 10.1719C241.695 10.1719 242.781 10.3438 243.766 10.6875C244.75 11.0312 245.594 11.5781 246.297 12.3281C247.016 13.0781 247.562 14.0703 247.938 15.3047C248.328 16.5391 248.523 18.0469 248.523 19.8281V36H241.727V19.8047C241.727 18.6797 241.57 17.8047 241.258 17.1797C240.945 16.5547 240.484 16.1172 239.875 15.8672C239.281 15.6016 238.547 15.4688 237.672 15.4688C236.766 15.4688 235.977 15.6484 235.305 16.0078C234.648 16.3672 234.102 16.8672 233.664 17.5078C233.242 18.1328 232.922 18.8672 232.703 19.7109C232.484 20.5547 232.375 21.4609 232.375 22.4297ZM266.078 10.6406V15.4219H251.312V10.6406H266.078ZM254.969 4.38281H261.719V28.3594C261.719 29.0938 261.812 29.6562 262 30.0469C262.203 30.4375 262.5 30.7109 262.891 30.8672C263.281 31.0078 263.773 31.0781 264.367 31.0781C264.789 31.0781 265.164 31.0625 265.492 31.0312C265.836 30.9844 266.125 30.9375 266.359 30.8906L266.383 35.8594C265.805 36.0469 265.18 36.1953 264.508 36.3047C263.836 36.4141 263.094 36.4688 262.281 36.4688C260.797 36.4688 259.5 36.2266 258.391 35.7422C257.297 35.2422 256.453 34.4453 255.859 33.3516C255.266 32.2578 254.969 30.8203 254.969 29.0391V4.38281ZM285.508 1.875H291.461L300.227 26.9297L308.992 1.875H314.945L302.617 36H297.836L285.508 1.875ZM282.297 1.875H288.227L289.305 26.2969V36H282.297V1.875ZM312.227 1.875H318.18V36H311.148V26.2969L312.227 1.875ZM335.594 36.4688C333.625 36.4688 331.859 36.1562 330.297 35.5312C328.734 34.8906 327.406 34.0078 326.312 32.8828C325.234 31.7578 324.406 30.4531 323.828 28.9688C323.25 27.4688 322.961 25.875 322.961 24.1875V23.25C322.961 21.3281 323.234 19.5703 323.781 17.9766C324.328 16.3828 325.109 15 326.125 13.8281C327.156 12.6562 328.406 11.7578 329.875 11.1328C331.344 10.4922 333 10.1719 334.844 10.1719C336.641 10.1719 338.234 10.4688 339.625 11.0625C341.016 11.6562 342.18 12.5 343.117 13.5938C344.07 14.6875 344.789 16 345.273 17.5312C345.758 19.0469 346 20.7344 346 22.5938V25.4062H325.844V20.9062H339.367V20.3906C339.367 19.4531 339.195 18.6172 338.852 17.8828C338.523 17.1328 338.023 16.5391 337.352 16.1016C336.68 15.6641 335.82 15.4453 334.773 15.4453C333.883 15.4453 333.117 15.6406 332.477 16.0312C331.836 16.4219 331.312 16.9688 330.906 17.6719C330.516 18.375 330.219 19.2031 330.016 20.1562C329.828 21.0938 329.734 22.125 329.734 23.25V24.1875C329.734 25.2031 329.875 26.1406 330.156 27C330.453 27.8594 330.867 28.6016 331.398 29.2266C331.945 29.8516 332.602 30.3359 333.367 30.6797C334.148 31.0234 335.031 31.1953 336.016 31.1953C337.234 31.1953 338.367 30.9609 339.414 30.4922C340.477 30.0078 341.391 29.2812 342.156 28.3125L345.438 31.875C344.906 32.6406 344.18 33.375 343.258 34.0781C342.352 34.7812 341.258 35.3594 339.977 35.8125C338.695 36.25 337.234 36.4688 335.594 36.4688ZM364.82 30.4688V0H371.617V36H365.5L364.82 30.4688ZM348.789 23.625V23.1328C348.789 21.1953 349.008 19.4375 349.445 17.8594C349.883 16.2656 350.523 14.8984 351.367 13.7578C352.211 12.6172 353.25 11.7344 354.484 11.1094C355.719 10.4844 357.125 10.1719 358.703 10.1719C360.188 10.1719 361.484 10.4844 362.594 11.1094C363.719 11.7344 364.672 12.625 365.453 13.7812C366.25 14.9219 366.891 16.2734 367.375 17.8359C367.859 19.3828 368.211 21.0781 368.43 22.9219V24C368.211 25.7656 367.859 27.4062 367.375 28.9219C366.891 30.4375 366.25 31.7656 365.453 32.9062C364.672 34.0312 363.719 34.9062 362.594 35.5312C361.469 36.1562 360.156 36.4688 358.656 36.4688C357.078 36.4688 355.672 36.1484 354.438 35.5078C353.219 34.8672 352.188 33.9688 351.344 32.8125C350.516 31.6562 349.883 30.2969 349.445 28.7344C349.008 27.1719 348.789 25.4688 348.789 23.625ZM355.539 23.1328V23.625C355.539 24.6719 355.617 25.6484 355.773 26.5547C355.945 27.4609 356.219 28.2656 356.594 28.9688C356.984 29.6562 357.484 30.1953 358.094 30.5859C358.719 30.9609 359.477 31.1484 360.367 31.1484C361.523 31.1484 362.477 30.8906 363.227 30.375C363.977 29.8438 364.547 29.1172 364.938 28.1953C365.344 27.2734 365.578 26.2109 365.641 25.0078V21.9375C365.594 20.9531 365.453 20.0703 365.219 19.2891C365 18.4922 364.672 17.8125 364.234 17.25C363.812 16.6875 363.281 16.25 362.641 15.9375C362.016 15.625 361.273 15.4688 360.414 15.4688C359.539 15.4688 358.789 15.6719 358.164 16.0781C357.539 16.4688 357.031 17.0078 356.641 17.6953C356.266 18.3828 355.984 19.1953 355.797 20.1328C355.625 21.0547 355.539 22.0547 355.539 23.1328ZM384.016 10.6406V36H377.242V10.6406H384.016ZM376.82 4.03125C376.82 3.04688 377.164 2.23437 377.852 1.59375C378.539 0.953125 379.461 0.632812 380.617 0.632812C381.758 0.632812 382.672 0.953125 383.359 1.59375C384.062 2.23437 384.414 3.04688 384.414 4.03125C384.414 5.01562 384.062 5.82813 383.359 6.46875C382.672 7.10937 381.758 7.42969 380.617 7.42969C379.461 7.42969 378.539 7.10937 377.852 6.46875C377.164 5.82813 376.82 5.01562 376.82 4.03125ZM403.281 30.2812V18.9844C403.281 18.1719 403.148 17.4766 402.883 16.8984C402.617 16.3047 402.203 15.8438 401.641 15.5156C401.094 15.1875 400.383 15.0234 399.508 15.0234C398.758 15.0234 398.109 15.1562 397.562 15.4219C397.016 15.6719 396.594 16.0391 396.297 16.5234C396 16.9922 395.852 17.5469 395.852 18.1875H389.102C389.102 17.1094 389.352 16.0859 389.852 15.1172C390.352 14.1484 391.078 13.2969 392.031 12.5625C392.984 11.8125 394.117 11.2266 395.43 10.8047C396.758 10.3828 398.242 10.1719 399.883 10.1719C401.852 10.1719 403.602 10.5 405.133 11.1562C406.664 11.8125 407.867 12.7969 408.742 14.1094C409.633 15.4219 410.078 17.0625 410.078 19.0312V29.8828C410.078 31.2734 410.164 32.4141 410.336 33.3047C410.508 34.1797 410.758 34.9453 411.086 35.6016V36H404.266C403.938 35.3125 403.688 34.4531 403.516 33.4219C403.359 32.375 403.281 31.3281 403.281 30.2812ZM404.172 20.5547L404.219 24.375H400.445C399.555 24.375 398.781 24.4766 398.125 24.6797C397.469 24.8828 396.93 25.1719 396.508 25.5469C396.086 25.9062 395.773 26.3281 395.57 26.8125C395.383 27.2969 395.289 27.8281 395.289 28.4062C395.289 28.9844 395.422 29.5078 395.688 29.9766C395.953 30.4297 396.336 30.7891 396.836 31.0547C397.336 31.3047 397.922 31.4297 398.594 31.4297C399.609 31.4297 400.492 31.2266 401.242 30.8203C401.992 30.4141 402.57 29.9141 402.977 29.3203C403.398 28.7266 403.617 28.1641 403.633 27.6328L405.414 30.4922C405.164 31.1328 404.82 31.7969 404.383 32.4844C403.961 33.1719 403.422 33.8203 402.766 34.4297C402.109 35.0234 401.32 35.5156 400.398 35.9062C399.477 36.2812 398.383 36.4688 397.117 36.4688C395.508 36.4688 394.047 36.1484 392.734 35.5078C391.438 34.8516 390.406 33.9531 389.641 32.8125C388.891 31.6562 388.516 30.3438 388.516 28.875C388.516 27.5469 388.766 26.3672 389.266 25.3359C389.766 24.3047 390.5 23.4375 391.469 22.7344C392.453 22.0156 393.68 21.4766 395.148 21.1172C396.617 20.7422 398.32 20.5547 400.258 20.5547H404.172ZM441.531 7.71094L432.25 36H424.773L437.453 1.875H442.211L441.531 7.71094ZM449.242 36L439.938 7.71094L439.188 1.875H443.992L456.742 36H449.242ZM448.82 23.2969V28.8047H430.797V23.2969H448.82ZM473.195 28.9922C473.195 28.5078 473.055 28.0703 472.773 27.6797C472.492 27.2891 471.969 26.9297 471.203 26.6016C470.453 26.2578 469.367 25.9453 467.945 25.6641C466.664 25.3828 465.469 25.0312 464.359 24.6094C463.266 24.1719 462.312 23.6484 461.5 23.0391C460.703 22.4297 460.078 21.7109 459.625 20.8828C459.172 20.0391 458.945 19.0781 458.945 18C458.945 16.9375 459.172 15.9375 459.625 15C460.094 14.0625 460.758 13.2344 461.617 12.5156C462.492 11.7812 463.555 11.2109 464.805 10.8047C466.07 10.3828 467.492 10.1719 469.07 10.1719C471.273 10.1719 473.164 10.5234 474.742 11.2266C476.336 11.9297 477.555 12.8984 478.398 14.1328C479.258 15.3516 479.688 16.7422 479.688 18.3047H472.938C472.938 17.6484 472.797 17.0625 472.516 16.5469C472.25 16.0156 471.828 15.6016 471.25 15.3047C470.688 14.9922 469.953 14.8359 469.047 14.8359C468.297 14.8359 467.648 14.9688 467.102 15.2344C466.555 15.4844 466.133 15.8281 465.836 16.2656C465.555 16.6875 465.414 17.1562 465.414 17.6719C465.414 18.0625 465.492 18.4141 465.648 18.7266C465.82 19.0234 466.094 19.2969 466.469 19.5469C466.844 19.7969 467.328 20.0312 467.922 20.25C468.531 20.4531 469.281 20.6406 470.172 20.8125C472 21.1875 473.633 21.6797 475.07 22.2891C476.508 22.8828 477.648 23.6953 478.492 24.7266C479.336 25.7422 479.758 27.0781 479.758 28.7344C479.758 29.8594 479.508 30.8906 479.008 31.8281C478.508 32.7656 477.789 33.5859 476.852 34.2891C475.914 34.9766 474.789 35.5156 473.477 35.9062C472.18 36.2812 470.719 36.4688 469.094 36.4688C466.734 36.4688 464.734 36.0469 463.094 35.2031C461.469 34.3594 460.234 33.2891 459.391 31.9922C458.562 30.6797 458.148 29.3359 458.148 27.9609H464.547C464.578 28.8828 464.812 29.625 465.25 30.1875C465.703 30.75 466.273 31.1562 466.961 31.4062C467.664 31.6562 468.422 31.7812 469.234 31.7812C470.109 31.7812 470.836 31.6641 471.414 31.4297C471.992 31.1797 472.43 30.8516 472.727 30.4453C473.039 30.0234 473.195 29.5391 473.195 28.9922ZM497.852 28.9922C497.852 28.5078 497.711 28.0703 497.43 27.6797C497.148 27.2891 496.625 26.9297 495.859 26.6016C495.109 26.2578 494.023 25.9453 492.602 25.6641C491.32 25.3828 490.125 25.0312 489.016 24.6094C487.922 24.1719 486.969 23.6484 486.156 23.0391C485.359 22.4297 484.734 21.7109 484.281 20.8828C483.828 20.0391 483.602 19.0781 483.602 18C483.602 16.9375 483.828 15.9375 484.281 15C484.75 14.0625 485.414 13.2344 486.273 12.5156C487.148 11.7812 488.211 11.2109 489.461 10.8047C490.727 10.3828 492.148 10.1719 493.727 10.1719C495.93 10.1719 497.82 10.5234 499.398 11.2266C500.992 11.9297 502.211 12.8984 503.055 14.1328C503.914 15.3516 504.344 16.7422 504.344 18.3047H497.594C497.594 17.6484 497.453 17.0625 497.172 16.5469C496.906 16.0156 496.484 15.6016 495.906 15.3047C495.344 14.9922 494.609 14.8359 493.703 14.8359C492.953 14.8359 492.305 14.9688 491.758 15.2344C491.211 15.4844 490.789 15.8281 490.492 16.2656C490.211 16.6875 490.07 17.1562 490.07 17.6719C490.07 18.0625 490.148 18.4141 490.305 18.7266C490.477 19.0234 490.75 19.2969 491.125 19.5469C491.5 19.7969 491.984 20.0312 492.578 20.25C493.188 20.4531 493.938 20.6406 494.828 20.8125C496.656 21.1875 498.289 21.6797 499.727 22.2891C501.164 22.8828 502.305 23.6953 503.148 24.7266C503.992 25.7422 504.414 27.0781 504.414 28.7344C504.414 29.8594 504.164 30.8906 503.664 31.8281C503.164 32.7656 502.445 33.5859 501.508 34.2891C500.57 34.9766 499.445 35.5156 498.133 35.9062C496.836 36.2812 495.375 36.4688 493.75 36.4688C491.391 36.4688 489.391 36.0469 487.75 35.2031C486.125 34.3594 484.891 33.2891 484.047 31.9922C483.219 30.6797 482.805 29.3359 482.805 27.9609H489.203C489.234 28.8828 489.469 29.625 489.906 30.1875C490.359 30.75 490.93 31.1562 491.617 31.4062C492.32 31.6562 493.078 31.7812 493.891 31.7812C494.766 31.7812 495.492 31.6641 496.07 31.4297C496.648 31.1797 497.086 30.8516 497.383 30.4453C497.695 30.0234 497.852 29.5391 497.852 28.9922ZM507.719 23.5781V23.0859C507.719 21.2266 507.984 19.5156 508.516 17.9531C509.047 16.375 509.82 15.0078 510.836 13.8516C511.852 12.6953 513.102 11.7969 514.586 11.1562C516.07 10.5 517.773 10.1719 519.695 10.1719C521.617 10.1719 523.328 10.5 524.828 11.1562C526.328 11.7969 527.586 12.6953 528.602 13.8516C529.633 15.0078 530.414 16.375 530.945 17.9531C531.477 19.5156 531.742 21.2266 531.742 23.0859V23.5781C531.742 25.4219 531.477 27.1328 530.945 28.7109C530.414 30.2734 529.633 31.6406 528.602 32.8125C527.586 33.9688 526.336 34.8672 524.852 35.5078C523.367 36.1484 521.664 36.4688 519.742 36.4688C517.82 36.4688 516.109 36.1484 514.609 35.5078C513.125 34.8672 511.867 33.9688 510.836 32.8125C509.82 31.6406 509.047 30.2734 508.516 28.7109C507.984 27.1328 507.719 25.4219 507.719 23.5781ZM514.469 23.0859V23.5781C514.469 24.6406 514.562 25.6328 514.75 26.5547C514.938 27.4766 515.234 28.2891 515.641 28.9922C516.062 29.6797 516.609 30.2188 517.281 30.6094C517.953 31 518.773 31.1953 519.742 31.1953C520.68 31.1953 521.484 31 522.156 30.6094C522.828 30.2188 523.367 29.6797 523.773 28.9922C524.18 28.2891 524.477 27.4766 524.664 26.5547C524.867 25.6328 524.969 24.6406 524.969 23.5781V23.0859C524.969 22.0547 524.867 21.0859 524.664 20.1797C524.477 19.2578 524.172 18.4453 523.75 17.7422C523.344 17.0234 522.805 16.4609 522.133 16.0547C521.461 15.6484 520.648 15.4453 519.695 15.4453C518.742 15.4453 517.93 15.6484 517.258 16.0547C516.602 16.4609 516.062 17.0234 515.641 17.7422C515.234 18.4453 514.938 19.2578 514.75 20.1797C514.562 21.0859 514.469 22.0547 514.469 23.0859ZM546.367 31.1953C547.195 31.1953 547.93 31.0391 548.57 30.7266C549.211 30.3984 549.711 29.9453 550.07 29.3672C550.445 28.7734 550.641 28.0781 550.656 27.2812H557.008C556.992 29.0625 556.516 30.6484 555.578 32.0391C554.641 33.4141 553.383 34.5 551.805 35.2969C550.227 36.0781 548.461 36.4688 546.508 36.4688C544.539 36.4688 542.82 36.1406 541.352 35.4844C539.898 34.8281 538.688 33.9219 537.719 32.7656C536.75 31.5938 536.023 30.2344 535.539 28.6875C535.055 27.125 534.812 25.4531 534.812 23.6719V22.9922C534.812 21.1953 535.055 19.5234 535.539 17.9766C536.023 16.4141 536.75 15.0547 537.719 13.8984C538.688 12.7266 539.898 11.8125 541.352 11.1562C542.805 10.5 544.508 10.1719 546.461 10.1719C548.539 10.1719 550.359 10.5703 551.922 11.3672C553.5 12.1641 554.734 13.3047 555.625 14.7891C556.531 16.2578 556.992 18 557.008 20.0156H550.656C550.641 19.1719 550.461 18.4062 550.117 17.7188C549.789 17.0312 549.305 16.4844 548.664 16.0781C548.039 15.6562 547.266 15.4453 546.344 15.4453C545.359 15.4453 544.555 15.6562 543.93 16.0781C543.305 16.4844 542.82 17.0469 542.477 17.7656C542.133 18.4688 541.891 19.2734 541.75 20.1797C541.625 21.0703 541.562 22.0078 541.562 22.9922V23.6719C541.562 24.6562 541.625 25.6016 541.75 26.5078C541.875 27.4141 542.109 28.2188 542.453 28.9219C542.812 29.625 543.305 30.1797 543.93 30.5859C544.555 30.9922 545.367 31.1953 546.367 31.1953ZM568.047 10.6406V36H561.273V10.6406H568.047ZM560.852 4.03125C560.852 3.04688 561.195 2.23437 561.883 1.59375C562.57 0.953125 563.492 0.632812 564.648 0.632812C565.789 0.632812 566.703 0.953125 567.391 1.59375C568.094 2.23437 568.445 3.04688 568.445 4.03125C568.445 5.01562 568.094 5.82813 567.391 6.46875C566.703 7.10937 565.789 7.42969 564.648 7.42969C563.492 7.42969 562.57 7.10937 561.883 6.46875C561.195 5.82813 560.852 5.01562 560.852 4.03125ZM587.312 30.2812V18.9844C587.312 18.1719 587.18 17.4766 586.914 16.8984C586.648 16.3047 586.234 15.8438 585.672 15.5156C585.125 15.1875 584.414 15.0234 583.539 15.0234C582.789 15.0234 582.141 15.1562 581.594 15.4219C581.047 15.6719 580.625 16.0391 580.328 16.5234C580.031 16.9922 579.883 17.5469 579.883 18.1875H573.133C573.133 17.1094 573.383 16.0859 573.883 15.1172C574.383 14.1484 575.109 13.2969 576.062 12.5625C577.016 11.8125 578.148 11.2266 579.461 10.8047C580.789 10.3828 582.273 10.1719 583.914 10.1719C585.883 10.1719 587.633 10.5 589.164 11.1562C590.695 11.8125 591.898 12.7969 592.773 14.1094C593.664 15.4219 594.109 17.0625 594.109 19.0312V29.8828C594.109 31.2734 594.195 32.4141 594.367 33.3047C594.539 34.1797 594.789 34.9453 595.117 35.6016V36H588.297C587.969 35.3125 587.719 34.4531 587.547 33.4219C587.391 32.375 587.312 31.3281 587.312 30.2812ZM588.203 20.5547L588.25 24.375H584.477C583.586 24.375 582.812 24.4766 582.156 24.6797C581.5 24.8828 580.961 25.1719 580.539 25.5469C580.117 25.9062 579.805 26.3281 579.602 26.8125C579.414 27.2969 579.32 27.8281 579.32 28.4062C579.32 28.9844 579.453 29.5078 579.719 29.9766C579.984 30.4297 580.367 30.7891 580.867 31.0547C581.367 31.3047 581.953 31.4297 582.625 31.4297C583.641 31.4297 584.523 31.2266 585.273 30.8203C586.023 30.4141 586.602 29.9141 587.008 29.3203C587.43 28.7266 587.648 28.1641 587.664 27.6328L589.445 30.4922C589.195 31.1328 588.852 31.7969 588.414 32.4844C587.992 33.1719 587.453 33.8203 586.797 34.4297C586.141 35.0234 585.352 35.5156 584.43 35.9062C583.508 36.2812 582.414 36.4688 581.148 36.4688C579.539 36.4688 578.078 36.1484 576.766 35.5078C575.469 34.8516 574.438 33.9531 573.672 32.8125C572.922 31.6562 572.547 30.3438 572.547 28.875C572.547 27.5469 572.797 26.3672 573.297 25.3359C573.797 24.3047 574.531 23.4375 575.5 22.7344C576.484 22.0156 577.711 21.4766 579.18 21.1172C580.648 20.7422 582.352 20.5547 584.289 20.5547H588.203ZM611.734 10.6406V15.4219H596.969V10.6406H611.734ZM600.625 4.38281H607.375V28.3594C607.375 29.0938 607.469 29.6562 607.656 30.0469C607.859 30.4375 608.156 30.7109 608.547 30.8672C608.938 31.0078 609.43 31.0781 610.023 31.0781C610.445 31.0781 610.82 31.0625 611.148 31.0312C611.492 30.9844 611.781 30.9375 612.016 30.8906L612.039 35.8594C611.461 36.0469 610.836 36.1953 610.164 36.3047C609.492 36.4141 608.75 36.4688 607.938 36.4688C606.453 36.4688 605.156 36.2266 604.047 35.7422C602.953 35.2422 602.109 34.4453 601.516 33.3516C600.922 32.2578 600.625 30.8203 600.625 29.0391V4.38281ZM622.703 10.6406V36H615.93V10.6406H622.703ZM615.508 4.03125C615.508 3.04688 615.852 2.23437 616.539 1.59375C617.227 0.953125 618.148 0.632812 619.305 0.632812C620.445 0.632812 621.359 0.953125 622.047 1.59375C622.75 2.23437 623.102 3.04688 623.102 4.03125C623.102 5.01562 622.75 5.82813 622.047 6.46875C621.359 7.10937 620.445 7.42969 619.305 7.42969C618.148 7.42969 617.227 7.10937 616.539 6.46875C615.852 5.82813 615.508 5.01562 615.508 4.03125ZM627.203 23.5781V23.0859C627.203 21.2266 627.469 19.5156 628 17.9531C628.531 16.375 629.305 15.0078 630.32 13.8516C631.336 12.6953 632.586 11.7969 634.07 11.1562C635.555 10.5 637.258 10.1719 639.18 10.1719C641.102 10.1719 642.812 10.5 644.312 11.1562C645.812 11.7969 647.07 12.6953 648.086 13.8516C649.117 15.0078 649.898 16.375 650.43 17.9531C650.961 19.5156 651.227 21.2266 651.227 23.0859V23.5781C651.227 25.4219 650.961 27.1328 650.43 28.7109C649.898 30.2734 649.117 31.6406 648.086 32.8125C647.07 33.9688 645.82 34.8672 644.336 35.5078C642.852 36.1484 641.148 36.4688 639.227 36.4688C637.305 36.4688 635.594 36.1484 634.094 35.5078C632.609 34.8672 631.352 33.9688 630.32 32.8125C629.305 31.6406 628.531 30.2734 628 28.7109C627.469 27.1328 627.203 25.4219 627.203 23.5781ZM633.953 23.0859V23.5781C633.953 24.6406 634.047 25.6328 634.234 26.5547C634.422 27.4766 634.719 28.2891 635.125 28.9922C635.547 29.6797 636.094 30.2188 636.766 30.6094C637.438 31 638.258 31.1953 639.227 31.1953C640.164 31.1953 640.969 31 641.641 30.6094C642.312 30.2188 642.852 29.6797 643.258 28.9922C643.664 28.2891 643.961 27.4766 644.148 26.5547C644.352 25.6328 644.453 24.6406 644.453 23.5781V23.0859C644.453 22.0547 644.352 21.0859 644.148 20.1797C643.961 19.2578 643.656 18.4453 643.234 17.7422C642.828 17.0234 642.289 16.4609 641.617 16.0547C640.945 15.6484 640.133 15.4453 639.18 15.4453C638.227 15.4453 637.414 15.6484 636.742 16.0547C636.086 16.4609 635.547 17.0234 635.125 17.7422C634.719 18.4453 634.422 19.2578 634.234 20.1797C634.047 21.0859 633.953 22.0547 633.953 23.0859ZM661.984 16.0547V36H655.234V10.6406H661.562L661.984 16.0547ZM661 22.4297H659.172C659.172 20.5547 659.414 18.8672 659.898 17.3672C660.383 15.8516 661.062 14.5625 661.938 13.5C662.812 12.4219 663.852 11.6016 665.055 11.0391C666.273 10.4609 667.633 10.1719 669.133 10.1719C670.32 10.1719 671.406 10.3438 672.391 10.6875C673.375 11.0312 674.219 11.5781 674.922 12.3281C675.641 13.0781 676.188 14.0703 676.562 15.3047C676.953 16.5391 677.148 18.0469 677.148 19.8281V36H670.352V19.8047C670.352 18.6797 670.195 17.8047 669.883 17.1797C669.57 16.5547 669.109 16.1172 668.5 15.8672C667.906 15.6016 667.172 15.4688 666.297 15.4688C665.391 15.4688 664.602 15.6484 663.93 16.0078C663.273 16.3672 662.727 16.8672 662.289 17.5078C661.867 18.1328 661.547 18.8672 661.328 19.7109C661.109 20.5547 661 21.4609 661 22.4297ZM252.977 79.5781V79.0859C252.977 77.2266 253.242 75.5156 253.773 73.9531C254.305 72.375 255.078 71.0078 256.094 69.8516C257.109 68.6953 258.359 67.7969 259.844 67.1562C261.328 66.5 263.031 66.1719 264.953 66.1719C266.875 66.1719 268.586 66.5 270.086 67.1562C271.586 67.7969 272.844 68.6953 273.859 69.8516C274.891 71.0078 275.672 72.375 276.203 73.9531C276.734 75.5156 277 77.2266 277 79.0859V79.5781C277 81.4219 276.734 83.1328 276.203 84.7109C275.672 86.2734 274.891 87.6406 273.859 88.8125C272.844 89.9688 271.594 90.8672 270.109 91.5078C268.625 92.1484 266.922 92.4688 265 92.4688C263.078 92.4688 261.367 92.1484 259.867 91.5078C258.383 90.8672 257.125 89.9688 256.094 88.8125C255.078 87.6406 254.305 86.2734 253.773 84.7109C253.242 83.1328 252.977 81.4219 252.977 79.5781ZM259.727 79.0859V79.5781C259.727 80.6406 259.82 81.6328 260.008 82.5547C260.195 83.4766 260.492 84.2891 260.898 84.9922C261.32 85.6797 261.867 86.2188 262.539 86.6094C263.211 87 264.031 87.1953 265 87.1953C265.938 87.1953 266.742 87 267.414 86.6094C268.086 86.2188 268.625 85.6797 269.031 84.9922C269.438 84.2891 269.734 83.4766 269.922 82.5547C270.125 81.6328 270.227 80.6406 270.227 79.5781V79.0859C270.227 78.0547 270.125 77.0859 269.922 76.1797C269.734 75.2578 269.43 74.4453 269.008 73.7422C268.602 73.0234 268.062 72.4609 267.391 72.0547C266.719 71.6484 265.906 71.4453 264.953 71.4453C264 71.4453 263.188 71.6484 262.516 72.0547C261.859 72.4609 261.32 73.0234 260.898 73.7422C260.492 74.4453 260.195 75.2578 260.008 76.1797C259.82 77.0859 259.727 78.0547 259.727 79.0859ZM289.75 92H282.953V64.3906C282.953 62.4688 283.328 60.8516 284.078 59.5391C284.844 58.2109 285.914 57.2109 287.289 56.5391C288.68 55.8516 290.328 55.5078 292.234 55.5078C292.859 55.5078 293.461 55.5547 294.039 55.6484C294.617 55.7266 295.18 55.8281 295.727 55.9531L295.656 61.0391C295.359 60.9609 295.047 60.9062 294.719 60.875C294.391 60.8438 294.008 60.8281 293.57 60.8281C292.758 60.8281 292.062 60.9688 291.484 61.25C290.922 61.5156 290.492 61.9141 290.195 62.4453C289.898 62.9766 289.75 63.625 289.75 64.3906V92ZM294.812 66.6406V71.4219H279.18V66.6406H294.812ZM332.664 86.5156V92H315.484V86.5156H332.664ZM317.758 57.875V92H310.727V57.875H317.758ZM349.961 86.2812V74.9844C349.961 74.1719 349.828 73.4766 349.562 72.8984C349.297 72.3047 348.883 71.8438 348.32 71.5156C347.773 71.1875 347.062 71.0234 346.188 71.0234C345.438 71.0234 344.789 71.1562 344.242 71.4219C343.695 71.6719 343.273 72.0391 342.977 72.5234C342.68 72.9922 342.531 73.5469 342.531 74.1875H335.781C335.781 73.1094 336.031 72.0859 336.531 71.1172C337.031 70.1484 337.758 69.2969 338.711 68.5625C339.664 67.8125 340.797 67.2266 342.109 66.8047C343.438 66.3828 344.922 66.1719 346.562 66.1719C348.531 66.1719 350.281 66.5 351.812 67.1562C353.344 67.8125 354.547 68.7969 355.422 70.1094C356.312 71.4219 356.758 73.0625 356.758 75.0312V85.8828C356.758 87.2734 356.844 88.4141 357.016 89.3047C357.188 90.1797 357.438 90.9453 357.766 91.6016V92H350.945C350.617 91.3125 350.367 90.4531 350.195 89.4219C350.039 88.375 349.961 87.3281 349.961 86.2812ZM350.852 76.5547L350.898 80.375H347.125C346.234 80.375 345.461 80.4766 344.805 80.6797C344.148 80.8828 343.609 81.1719 343.188 81.5469C342.766 81.9062 342.453 82.3281 342.25 82.8125C342.062 83.2969 341.969 83.8281 341.969 84.4062C341.969 84.9844 342.102 85.5078 342.367 85.9766C342.633 86.4297 343.016 86.7891 343.516 87.0547C344.016 87.3047 344.602 87.4297 345.273 87.4297C346.289 87.4297 347.172 87.2266 347.922 86.8203C348.672 86.4141 349.25 85.9141 349.656 85.3203C350.078 84.7266 350.297 84.1641 350.312 83.6328L352.094 86.4922C351.844 87.1328 351.5 87.7969 351.062 88.4844C350.641 89.1719 350.102 89.8203 349.445 90.4297C348.789 91.0234 348 91.5156 347.078 91.9062C346.156 92.2812 345.062 92.4688 343.797 92.4688C342.188 92.4688 340.727 92.1484 339.414 91.5078C338.117 90.8516 337.086 89.9531 336.32 88.8125C335.57 87.6562 335.195 86.3438 335.195 84.875C335.195 83.5469 335.445 82.3672 335.945 81.3359C336.445 80.3047 337.18 79.4375 338.148 78.7344C339.133 78.0156 340.359 77.4766 341.828 77.1172C343.297 76.7422 345 76.5547 346.938 76.5547H350.852ZM368.57 72.0547V92H361.82V66.6406H368.148L368.57 72.0547ZM367.586 78.4297H365.758C365.758 76.5547 366 74.8672 366.484 73.3672C366.969 71.8516 367.648 70.5625 368.523 69.5C369.398 68.4219 370.438 67.6016 371.641 67.0391C372.859 66.4609 374.219 66.1719 375.719 66.1719C376.906 66.1719 377.992 66.3438 378.977 66.6875C379.961 67.0312 380.805 67.5781 381.508 68.3281C382.227 69.0781 382.773 70.0703 383.148 71.3047C383.539 72.5391 383.734 74.0469 383.734 75.8281V92H376.938V75.8047C376.938 74.6797 376.781 73.8047 376.469 73.1797C376.156 72.5547 375.695 72.1172 375.086 71.8672C374.492 71.6016 373.758 71.4688 372.883 71.4688C371.977 71.4688 371.188 71.6484 370.516 72.0078C369.859 72.3672 369.312 72.8672 368.875 73.5078C368.453 74.1328 368.133 74.8672 367.914 75.7109C367.695 76.5547 367.586 77.4609 367.586 78.4297ZM395.617 55.9766V92H388.867V55.9766H395.617ZM411.602 66.6406L400.586 79.2031L394.68 85.1797L392.219 80.3047L396.906 74.3516L403.492 66.6406H411.602ZM404.594 92L397.094 80.2812L401.758 76.2031L412.375 92H404.594ZM428.195 86.2812V74.9844C428.195 74.1719 428.062 73.4766 427.797 72.8984C427.531 72.3047 427.117 71.8438 426.555 71.5156C426.008 71.1875 425.297 71.0234 424.422 71.0234C423.672 71.0234 423.023 71.1562 422.477 71.4219C421.93 71.6719 421.508 72.0391 421.211 72.5234C420.914 72.9922 420.766 73.5469 420.766 74.1875H414.016C414.016 73.1094 414.266 72.0859 414.766 71.1172C415.266 70.1484 415.992 69.2969 416.945 68.5625C417.898 67.8125 419.031 67.2266 420.344 66.8047C421.672 66.3828 423.156 66.1719 424.797 66.1719C426.766 66.1719 428.516 66.5 430.047 67.1562C431.578 67.8125 432.781 68.7969 433.656 70.1094C434.547 71.4219 434.992 73.0625 434.992 75.0312V85.8828C434.992 87.2734 435.078 88.4141 435.25 89.3047C435.422 90.1797 435.672 90.9453 436 91.6016V92H429.18C428.852 91.3125 428.602 90.4531 428.43 89.4219C428.273 88.375 428.195 87.3281 428.195 86.2812ZM429.086 76.5547L429.133 80.375H425.359C424.469 80.375 423.695 80.4766 423.039 80.6797C422.383 80.8828 421.844 81.1719 421.422 81.5469C421 81.9062 420.688 82.3281 420.484 82.8125C420.297 83.2969 420.203 83.8281 420.203 84.4062C420.203 84.9844 420.336 85.5078 420.602 85.9766C420.867 86.4297 421.25 86.7891 421.75 87.0547C422.25 87.3047 422.836 87.4297 423.508 87.4297C424.523 87.4297 425.406 87.2266 426.156 86.8203C426.906 86.4141 427.484 85.9141 427.891 85.3203C428.312 84.7266 428.531 84.1641 428.547 83.6328L430.328 86.4922C430.078 87.1328 429.734 87.7969 429.297 88.4844C428.875 89.1719 428.336 89.8203 427.68 90.4297C427.023 91.0234 426.234 91.5156 425.312 91.9062C424.391 92.2812 423.297 92.4688 422.031 92.4688C420.422 92.4688 418.961 92.1484 417.648 91.5078C416.352 90.8516 415.32 89.9531 414.555 88.8125C413.805 87.6562 413.43 86.3438 413.43 84.875C413.43 83.5469 413.68 82.3672 414.18 81.3359C414.68 80.3047 415.414 79.4375 416.383 78.7344C417.367 78.0156 418.594 77.4766 420.062 77.1172C421.531 76.7422 423.234 76.5547 425.172 76.5547H429.086Z" fill="white"></path>
</svg>
