<svg xmlns="http://www.w3.org/2000/svg" width="30" height="30" viewBox="0 0 30 30" fill="none"><g clip-path="url(#clip0_14_582)"><path d="M11.0449 1.00781C10.8867 1.03711 10.541 1.16602 10.2773 1.28906C9.08789 1.86328 8.34375 3.16406 8.45508 4.47656C8.51367 5.15039 8.80078 5.8418 9.2168 6.32812L9.39844 6.5332L7.61719 6.55078L5.83594 6.5625L4.42383 5.15625C3.13477 3.87305 2.99414 3.75 2.8125 3.75C2.63086 3.75 2.52539 3.83789 1.77539 4.58789C1.04297 5.31445 0.9375 5.44922 0.9375 5.61328C0.9375 5.77734 1.16016 6.05859 2.58398 7.6875C3.49219 8.73047 4.29492 9.63867 4.37695 9.70898C4.51758 9.84375 4.5293 9.84375 6.48047 9.84375H8.4375V12.1875V14.5312H7.41211C6.39844 14.5312 6.38086 14.5312 6.24023 14.6777L6.09375 14.8184V18.75V22.6816L6.24023 22.8223C6.36914 22.957 6.42773 22.9688 6.94336 22.9688H7.5V25.8691V28.7754L7.64648 28.916L7.78711 29.0625H15H22.2129L22.3535 28.916L22.5 28.7754V25.8691V22.9688H23.0566C23.5723 22.9688 23.6309 22.957 23.7598 22.8223L23.9063 22.6816V18.75V14.8184L23.7598 14.6777C23.6309 14.5488 23.5723 14.5312 23.1445 14.5312C22.7168 14.5312 22.6699 14.5195 22.6992 14.4258C22.7168 14.373 22.8281 14.0098 22.9453 13.623C23.0625 13.2363 23.1738 12.8965 23.1855 12.873C23.2031 12.8496 23.3965 13.0723 23.6191 13.3711C24.082 13.9922 24.1582 14.0625 24.3809 14.0625C24.6914 14.0625 24.7617 13.9277 25.2832 12.3633C25.5586 11.543 25.7813 10.8164 25.7813 10.7461C25.7813 10.5645 24.2168 8.50195 24.0469 8.46094C23.8418 8.4082 23.625 8.47852 23.5313 8.63086C23.4902 8.70117 23.1387 9.7793 22.7578 11.0273C22.377 12.2812 22.0488 13.3008 22.0313 13.3008C22.0137 13.3008 21.6855 12.2812 21.3047 11.0273C20.9238 9.7793 20.5723 8.70117 20.5313 8.63086C20.4375 8.47852 20.2207 8.4082 20.0156 8.46094C19.8457 8.50195 18.2813 10.5645 18.2813 10.7461C18.2813 10.8164 18.5039 11.543 18.7793 12.3633C19.3008 13.9277 19.3711 14.0625 19.6816 14.0625C19.9043 14.0625 19.9805 13.9922 20.4434 13.3711C20.666 13.0723 20.8594 12.8496 20.877 12.873C20.8887 12.8965 21 13.2363 21.1172 13.623C21.2344 14.0098 21.3457 14.373 21.3633 14.4258C21.3926 14.5254 21.2695 14.5312 19.3711 14.5312H17.3438V12.0527C17.3438 10.5469 17.3203 9.43359 17.2793 9.22266C17.0449 7.91016 15.8965 6.81445 14.5371 6.60938L14.0508 6.5332L14.2383 6.29883C15.0703 5.25586 15.2227 3.9668 14.6484 2.77734C14.0098 1.44727 12.5391 0.726562 11.0449 1.00781ZM12.6797 2.09766C13.2129 2.34375 13.5527 2.68359 13.8164 3.21094C14.0215 3.63281 14.0332 3.68555 14.0332 4.21875C14.0332 4.75195 14.0215 4.80469 13.8164 5.22656C13.5527 5.75977 13.2129 6.08789 12.668 6.3457C12.3105 6.51562 12.2227 6.5332 11.7188 6.5332C11.2148 6.5332 11.127 6.51562 10.7695 6.3457C10.2246 6.08789 9.88477 5.75977 9.62109 5.22656C9.41602 4.80469 9.4043 4.75195 9.4043 4.22461C9.4043 3.71484 9.42188 3.62695 9.5918 3.26953C9.82617 2.77148 10.1602 2.4082 10.5996 2.17969C11.0566 1.93359 11.3145 1.875 11.8477 1.89844C12.2051 1.91602 12.3867 1.96289 12.6797 2.09766ZM4.11328 6.19336L5.39063 7.4707L10.0078 7.5L14.6191 7.5293L15.0117 7.7168C15.5566 7.97461 15.8965 8.30273 16.1602 8.83594L16.377 9.28125L16.3945 11.9062L16.4121 14.5312H15.7031H15V11.9531V9.375H14.5313H14.0625V11.9531V14.5312H12.6563H11.25V12.7148V10.8984L11.6895 10.0195C11.9297 9.53906 12.1289 9.13477 12.1289 9.12305C12.1289 9.08789 11.3086 8.70703 11.2852 8.73633C11.2734 8.74805 11.0508 9.1875 10.7871 9.70898L10.3125 10.6641V12.5977V14.5312H9.84375H9.375V11.8652V9.19336L9.22852 9.05273L9.08789 8.90625H6.99023H4.89258L3.47461 7.27734L2.05664 5.6543L2.41992 5.28516C2.61914 5.08594 2.79492 4.92188 2.8125 4.92188C2.82422 4.92188 3.41602 5.49609 4.11328 6.19336ZM20.2734 10.875L20.5195 11.7012L20.209 12.123C20.0391 12.3516 19.8809 12.5391 19.8633 12.5391C19.8457 12.5391 19.7168 12.1875 19.5762 11.7598C19.4355 11.3379 19.3066 10.957 19.2949 10.9277C19.2656 10.8457 19.9336 9.94922 19.9863 10.0078C20.0039 10.0312 20.1387 10.418 20.2734 10.875ZM24.4688 10.4355C24.6445 10.6699 24.7793 10.8926 24.7676 10.9277C24.7559 10.957 24.627 11.3379 24.4863 11.7598C24.3457 12.1875 24.2168 12.5391 24.1992 12.5391C24.1816 12.5391 24.0234 12.3516 23.8535 12.123L23.543 11.7012L23.7891 10.875C23.9297 10.418 24.0527 10.0254 24.0645 10.002C24.0996 9.94336 24.082 9.91992 24.4688 10.4355ZM22.9688 18.75V22.0312H15H7.03125V18.75V15.4688H15H22.9688V18.75ZM11.25 24.9316V26.9004L11.3965 27.041C11.4727 27.123 11.5957 27.1875 11.6719 27.1875C11.748 27.1875 12.5273 26.8828 13.4063 26.5078L15.0059 25.8223L16.5996 26.5078C17.4785 26.8828 18.252 27.1875 18.3281 27.1875C18.4043 27.1875 18.5273 27.123 18.6035 27.041L18.75 26.9004V24.9316V22.9688H20.1563H21.5625V25.5469V28.125H15H8.4375V25.5469V22.9688H9.84375H11.25V24.9316ZM17.8125 24.4863V26.0039L16.459 25.4238C15.7148 25.1074 15.0645 24.8438 15.0059 24.8438C14.9531 24.8438 14.4727 25.0312 13.9453 25.2598C13.4121 25.4883 12.8027 25.752 12.5859 25.8398L12.1875 26.0098V24.4922V22.9688H15H17.8125V24.4863Z" fill="#F17300"></path><path d="M14.4492 16.4648C14.0801 16.5586 13.5527 16.875 13.2949 17.1504C13.166 17.291 12.9727 17.584 12.873 17.8008C12.7031 18.1582 12.6855 18.2461 12.6855 18.7559C12.6855 19.2832 12.6973 19.3359 12.9023 19.7578C13.166 20.291 13.5059 20.6191 14.0508 20.877C14.4082 21.0469 14.4961 21.0645 15 21.0645C15.5039 21.0645 15.5918 21.0469 15.9492 20.877C16.4941 20.6191 16.834 20.291 17.0977 19.7578C17.3027 19.3359 17.3145 19.2832 17.3145 18.75C17.3145 18.2168 17.3027 18.1641 17.0977 17.7422C16.6992 16.9453 15.9961 16.4707 15.1289 16.4297C14.8828 16.418 14.5781 16.4355 14.4492 16.4648ZM15.4336 17.4141C15.7559 17.5078 16.2422 17.9941 16.3359 18.3164C16.5 18.8672 16.3828 19.3066 15.9668 19.7168C15.375 20.3145 14.625 20.3145 14.0332 19.7168C13.4355 19.125 13.4355 18.375 14.0332 17.7832C14.4434 17.3672 14.8828 17.2559 15.4336 17.4141Z" fill="#F17300"></path><path d="M19.6875 1.01367C19.4004 1.10742 18.9082 1.61133 18.8203 1.91016C18.7734 2.06836 18.75 2.625 18.75 3.55078V4.94531L17.8125 5.88867C16.9922 6.7207 16.875 6.85547 16.875 7.02539C16.875 7.14844 16.9277 7.26562 17.0215 7.35352L17.1621 7.5H22.5059C26.5312 7.5 27.9082 7.48242 28.0898 7.42969C28.4121 7.33594 28.8984 6.84961 28.9922 6.52734C29.0918 6.19336 29.0918 2.25 28.9922 1.92188C28.957 1.79297 28.8105 1.55859 28.6699 1.40625C28.2305 0.919922 28.4297 0.9375 23.8828 0.943359C21.1523 0.949219 19.8281 0.972656 19.6875 1.01367ZM27.9785 2.02148L28.125 2.16211V4.21875V6.27539L27.9785 6.41602L27.8379 6.5625H23.168H18.4922L19.0898 5.95312L19.6875 5.34961V3.75586V2.16211L19.834 2.02148L19.9746 1.875H23.9062H27.8379L27.9785 2.02148Z" fill="#F17300"></path><path d="M20.625 3.28125V3.75H23.9063H27.1875V3.28125V2.8125H23.9063H20.625V3.28125Z" fill="#F17300"></path><path d="M20.625 5.15625V5.625H23.9063H27.1875V5.15625V4.6875H23.9063H20.625V5.15625Z" fill="#F17300"></path></g><defs><clipPath id="clip0_14_582"><rect width="30" height="30" fill="white"></rect></clipPath></defs></svg>