<svg xmlns="http://www.w3.org/2000/svg" width="30" height="30" viewBox="0 0 30 30" fill="none"><g clip-path="url(#clip0_14_574)"><path d="M14.0039 0.638672L13.5645 0.673828L13.1426 1.9043C12.9141 2.57812 12.7148 3.15234 12.7031 3.18164C12.6855 3.2168 11.6953 3.50391 11.209 3.61523C11.1035 3.63867 10.9102 3.49219 10.2715 2.92383C9.82617 2.53125 9.38086 2.12695 9.27539 2.0332L9.08789 1.85742L8.49023 2.16797C7.875 2.47852 7.08398 2.95312 6.76172 3.19336L6.58008 3.33398L6.83203 4.52344C6.97266 5.17969 7.08398 5.76562 7.08984 5.83594C7.08984 5.97656 6.00586 7.08984 5.85938 7.08984C5.8125 7.08984 5.2207 6.97266 4.55273 6.83789L3.33398 6.58008L3.19336 6.76172C2.95312 7.08398 2.4668 7.89258 2.16211 8.49609L1.85742 9.08203L2.05664 9.29883C2.16797 9.42188 2.57227 9.87305 2.95312 10.3066L3.65625 11.0859L3.58008 11.3555C3.5332 11.5078 3.43945 11.8652 3.36328 12.1582C3.28711 12.4453 3.20508 12.6914 3.18164 12.7031C3.15234 12.7148 2.58398 12.9141 1.9043 13.1426L0.673828 13.5645L0.626953 14.2852C0.597656 14.6777 0.597656 15.3223 0.626953 15.7207L0.673828 16.4355L1.94531 16.8633L3.22266 17.2969L3.28125 17.5371C3.31055 17.6719 3.41016 18.0352 3.49219 18.3516L3.65039 18.9141L2.77734 19.8926C2.15039 20.6016 1.91016 20.9062 1.92188 21C1.94531 21.1875 3.08203 23.1797 3.30469 23.4141C3.30469 23.4199 3.73242 23.3379 4.24805 23.2266C4.76367 23.1211 5.34961 22.998 5.55469 22.957L5.91797 22.8867L6.49805 23.4434C6.84375 23.7715 7.07812 24.041 7.08398 24.1172C7.08984 24.2227 6.66797 26.3438 6.5918 26.6016C6.55664 26.707 7.58789 27.3809 8.48438 27.832L9.08789 28.1426L9.27539 27.9668C9.38086 27.873 9.82617 27.4688 10.2715 27.0762C10.9102 26.5078 11.1035 26.3613 11.209 26.3848C11.6953 26.4961 12.6855 26.7832 12.7031 26.8184C12.7148 26.8477 12.9141 27.416 13.1426 28.0957L13.5645 29.3262L14.2852 29.373C14.6777 29.4023 15.3223 29.4023 15.7207 29.373L16.4355 29.3262L16.8633 28.0547L17.2969 26.7773L17.5371 26.7188C17.6719 26.6836 18.041 26.5898 18.3516 26.502L18.9141 26.3496L19.8926 27.2227C20.4316 27.7031 20.8945 28.1074 20.9238 28.1133C21.0703 28.1719 23.4551 26.748 23.4141 26.6309C23.4023 26.5957 23.2793 26.0098 23.1387 25.3242L22.8809 24.082L23.4844 23.4844L24.082 22.8809L25.3242 23.1387C26.0098 23.2793 26.5957 23.4023 26.6309 23.4141C26.7422 23.4551 28.043 21.293 28.0781 21C28.0898 20.9062 27.8496 20.6016 27.2227 19.8984C26.5312 19.1191 26.3613 18.8965 26.3848 18.791C26.4961 18.3047 26.7832 17.3145 26.8184 17.2969C26.8477 17.2852 27.4219 17.0859 28.0957 16.8574L29.3262 16.4355L29.373 15.7207C29.4023 15.3223 29.4023 14.6777 29.373 14.2852L29.3262 13.5645L28.0957 13.1426C27.4219 12.9141 26.8477 12.7148 26.8184 12.7031C26.7949 12.6914 26.7129 12.4453 26.6367 12.1582C26.5605 11.8652 26.4668 11.5078 26.4258 11.3613L26.3438 11.0859L27.2227 10.1074C27.8496 9.39844 28.0898 9.09375 28.0781 9C28.043 8.70703 26.7422 6.54492 26.6309 6.58594C26.5957 6.59766 26.0098 6.7207 25.3242 6.86133L24.082 7.11914L23.4844 6.51562L22.8809 5.91797L23.1387 4.67578C23.2793 3.99023 23.4023 3.4043 23.4141 3.36914C23.4551 3.25195 21.0703 1.82812 20.9238 1.88672C20.8945 1.89258 20.4316 2.29688 19.8926 2.77734L18.9141 3.65039L18.3516 3.49805C18.041 3.41016 17.6719 3.31641 17.5371 3.28125L17.2969 3.22266L16.875 1.96289C16.6465 1.27148 16.4355 0.691406 16.4121 0.679688C16.3359 0.632812 14.4551 0.597656 14.0039 0.638672ZM15.9609 3.0293C16.1836 3.70312 16.3711 4.25391 16.377 4.26562C16.3887 4.27734 16.7168 4.34766 17.1094 4.42969C17.502 4.50586 18.1289 4.67578 18.5039 4.80469L19.1777 5.0332L19.9746 4.32422C20.4141 3.93164 20.8535 3.53906 20.9473 3.45117L21.123 3.28711L21.5918 3.56836C21.8496 3.7207 22.0605 3.88477 22.0547 3.93164C22.0488 3.97852 21.9375 4.55273 21.7969 5.20898L21.5508 6.41016L21.8027 6.61523C22.1367 6.87891 23.1211 7.86328 23.3848 8.19727L23.5957 8.44922L24.7617 8.20898C25.4004 8.07422 25.9746 7.95117 26.0273 7.93359C26.127 7.9043 26.1973 7.99219 26.5547 8.61328L26.707 8.88281L25.8398 9.85547L24.9727 10.8281L25.1953 11.502C25.3242 11.8711 25.4941 12.498 25.5703 12.8906C25.6523 13.2832 25.7227 13.6113 25.7344 13.623C25.7461 13.6289 26.2969 13.8164 26.9707 14.0391L28.1836 14.4434V15V15.5566L26.9707 15.9609C26.2969 16.1836 25.7461 16.3711 25.7344 16.377C25.7227 16.3887 25.6523 16.7168 25.5703 17.1094C25.4941 17.502 25.3242 18.1289 25.1953 18.5039L24.9668 19.1777L25.834 20.1445L26.7012 21.1113L26.4727 21.5273C26.3438 21.7559 26.209 21.9727 26.168 22.0137C26.1211 22.0605 25.7988 22.0137 24.8496 21.8145L23.5957 21.5508L23.3613 21.832C23.0566 22.2012 22.2012 23.0566 21.8379 23.3613L21.5508 23.5957L21.8027 24.791C21.9375 25.4473 22.0488 26.0215 22.0547 26.0684C22.0605 26.1152 21.8496 26.2793 21.5918 26.4316L21.123 26.7129L20.9766 26.5781C20.8945 26.5078 20.4609 26.1152 20.0039 25.7051L19.1777 24.9668L18.5039 25.1953C18.1289 25.3242 17.502 25.4941 17.1094 25.5703C16.7168 25.6523 16.3887 25.7227 16.377 25.7344C16.3711 25.7461 16.1836 26.2969 15.9609 26.9707L15.5566 28.1836H15H14.4434L14.0391 26.9707C13.8164 26.2969 13.6289 25.7461 13.623 25.7344C13.6113 25.7227 13.2891 25.6523 12.8965 25.5703C12.5039 25.4941 11.877 25.3242 11.502 25.1953L10.8281 24.9668L9.86133 25.834L8.88867 26.7012L8.47266 26.4727C8.24414 26.3438 8.02734 26.209 7.98633 26.168C7.93945 26.1211 7.98633 25.793 8.18555 24.8496L8.44922 23.5898L8.19141 23.3848C7.86328 23.1211 6.87891 22.1367 6.61523 21.8027L6.4043 21.5508L5.23828 21.791C4.59961 21.9258 4.02539 22.0488 3.97266 22.0664C3.87305 22.0957 3.80273 22.0078 3.44531 21.3867L3.29297 21.1172L4.16016 20.1445L5.02734 19.166L4.79883 18.498C4.67578 18.1289 4.50586 17.502 4.42969 17.1094C4.34766 16.7168 4.27734 16.3887 4.26562 16.377C4.25391 16.3711 3.70312 16.1836 3.03516 15.9609L1.81641 15.5566V15V14.4434L3.03516 14.0391C3.70312 13.8164 4.25391 13.6289 4.26562 13.623C4.27734 13.6113 4.34766 13.2832 4.42969 12.8906C4.50586 12.498 4.67578 11.8711 4.80469 11.4961L5.0332 10.8223L4.16602 9.85547L3.29883 8.88867L3.52734 8.47266C3.65625 8.24414 3.79102 8.02734 3.83203 7.98633C3.87891 7.93945 4.20117 7.98633 5.15039 8.18555L6.4043 8.44922L6.63867 8.16797C6.94336 7.79883 7.79883 6.94336 8.16797 6.63867L8.44922 6.4043L8.18555 5.15039L7.92188 3.89648L8.04492 3.79688C8.11523 3.74414 8.33789 3.60938 8.53125 3.49805L8.88867 3.29883L9.86133 4.16602L10.8281 5.0332L11.5078 4.80469C11.877 4.67578 12.5039 4.50586 12.8965 4.42969C13.2891 4.34766 13.6113 4.27734 13.623 4.26562C13.6289 4.25391 13.8164 3.70312 14.0391 3.0293L14.4434 1.81641H15H15.5566L15.9609 3.0293Z" fill="#F17300"></path><path d="M13.8867 6.70898C11.6543 7.15429 9.80273 8.89453 9.1875 11.1152C9.07617 11.5078 9.05859 11.7246 9.05859 12.627C9.05859 13.6113 9.07031 13.7168 9.2168 14.2031C9.58594 15.3926 9.95508 15.9844 11.0449 17.1094C11.8828 17.9824 12.1113 18.3164 12.3809 19.084L12.5684 19.5996L12.5859 21.4922L12.6094 23.3789H13.5117H14.4141V23.9941V24.6094H15H15.5859V23.9941V23.3789H16.4883H17.3965L17.4141 21.4863L17.4316 19.5996L17.5957 19.1309C17.8594 18.375 18.1641 17.9297 19.0137 17.0449C20.1445 15.8789 20.6016 15.0645 20.8711 13.7695C21.041 12.9727 20.9941 11.7363 20.7773 10.9863C20.4551 9.90234 20.0156 9.16406 19.1953 8.34375C18.0352 7.18945 16.623 6.61523 14.9707 6.62695C14.584 6.63281 14.0977 6.66797 13.8867 6.70898ZM15.8496 7.88086C17.6719 8.20312 19.1836 9.61523 19.6641 11.4551C19.8105 12.0117 19.8105 13.1836 19.6699 13.7051C19.3887 14.7363 19.0898 15.2285 18.1348 16.2246C17.7129 16.6641 17.2734 17.1738 17.1504 17.3613C16.7285 18 16.3887 18.8555 16.2598 19.582L16.2246 19.8047H15.9082H15.5859V16.9219V14.0449L16.3887 13.2305L17.1914 12.4219L16.7871 12.0117L16.377 11.6016L15.6914 12.2871L15 12.9785L14.3086 12.2871L13.623 11.6016L13.2129 12.0117C12.9902 12.2344 12.8203 12.4336 12.8379 12.4453C12.8496 12.4629 13.2129 12.832 13.6406 13.2656L14.4141 14.0508V16.9277V19.8047H14.1035H13.7871L13.6875 19.3184C13.4355 18.1523 13.0078 17.4023 11.9531 16.3184C11.1328 15.4746 10.916 15.1875 10.6348 14.5723C9.4043 11.8828 10.9629 8.68359 13.8574 7.95117C14.543 7.77539 15.1172 7.75781 15.8496 7.88086ZM16.1719 21.5918V22.207H15H13.8281V21.5918V20.9766H15H16.1719V21.5918Z" fill="#F17300"></path></g><defs><clipPath id="clip0_14_574"><rect width="30" height="30" fill="white"></rect></clipPath></defs></svg>